<svg width="62" height="59" viewBox="0 0 62 59" fill="none" xmlns="http://www.w3.org/2000/svg">
<path d="M38.9374 47.7232C38.371 47.6154 37.7982 47.5393 37.2445 47.3872C35.106 46.823 33.3367 45.6819 31.9429 43.9639C31.8029 43.7928 31.6756 43.723 31.4465 43.7547C26.985 44.3823 22.8862 43.4061 19.2267 40.8069C15.058 37.8464 12.6967 33.7702 12.1048 28.7051C11.2266 21.1232 15.949 13.6047 23.1663 11.0373C31.2301 8.17191 39.8603 11.3923 44.0099 18.8537C45.8174 22.1122 46.4348 25.6178 45.9129 29.3137C45.8811 29.5229 45.9001 29.6687 46.0847 29.8208C48.2614 31.5832 49.5152 33.859 49.827 36.642C49.8334 36.699 49.8652 36.7561 49.8843 36.8131V38.5057C49.8588 38.6008 49.827 38.6959 49.8207 38.791C49.3879 42.8292 46.4475 46.2715 42.5206 47.3491C41.9033 47.5203 41.2668 47.59 40.6431 47.7168H38.9438L38.9374 47.7232ZM28.4233 17.2499C28.4233 16.5525 28.4106 15.8489 28.4233 15.1515C28.4233 14.898 28.3533 14.7648 28.1115 14.6571C26.5713 13.9724 25.0311 13.2814 23.51 12.5651C23.2172 12.4256 22.9881 12.4446 22.7144 12.5651C20.8051 13.4209 19.1185 14.5937 17.6547 16.0834C17.4192 16.3243 17.3619 16.5525 17.4128 16.8695C17.6865 18.7396 17.9538 20.6097 18.2147 22.4798C18.2402 22.6764 18.3166 22.7841 18.5011 22.8602C19.6149 23.323 20.7223 23.7921 21.8361 24.2675C21.9889 24.3309 22.1034 24.3183 22.2371 24.2232C24.2291 22.7715 26.2212 21.3324 28.2133 19.887C28.3724 19.7729 28.4297 19.6525 28.4297 19.456C28.417 18.7206 28.4297 17.9852 28.4297 17.2435L28.4233 17.2499ZM29.6835 17.2625C29.6835 17.9979 29.6899 18.7333 29.6835 19.475C29.6835 19.6715 29.7471 19.7856 29.8999 19.8997C31.8856 21.3324 33.8713 22.7715 35.8507 24.2105C35.997 24.3119 36.1116 24.35 36.2834 24.2739C37.3909 23.7984 38.4983 23.3293 39.6121 22.8665C39.7839 22.7968 39.8603 22.6954 39.8857 22.5179C40.1594 20.5717 40.4331 18.6318 40.7131 16.6857C40.7386 16.5018 40.7004 16.3624 40.5667 16.2229C39.0329 14.619 37.2508 13.3765 35.2078 12.5017C35.0424 12.432 34.9151 12.432 34.756 12.5017C33.1458 13.2371 31.5356 13.9724 29.919 14.6951C29.7471 14.7712 29.6835 14.8663 29.6899 15.0501C29.7026 15.7855 29.6899 16.5208 29.6899 17.2625H29.6835ZM27.9333 33.2694C28.7479 33.2694 29.5626 33.2631 30.3709 33.2694C30.6063 33.2694 30.7464 33.2124 30.8609 32.9905C31.5865 31.5768 32.6111 30.4167 33.9031 29.4912C34.0495 29.3834 34.145 29.263 34.1895 29.0854C34.5205 27.919 34.8514 26.7526 35.1888 25.5861C35.2397 25.4023 35.2206 25.3009 35.0615 25.1867C33.1139 23.7857 31.1728 22.3784 29.238 20.9647C29.098 20.8633 29.0025 20.8506 28.8561 20.9647C26.915 22.3784 24.9738 23.7857 23.0326 25.1867C22.8735 25.3009 22.8417 25.4086 22.8926 25.5861C23.6054 28.0585 24.3183 30.5308 25.0247 33.0032C25.082 33.1997 25.1647 33.2758 25.3811 33.2694C26.234 33.2567 27.0804 33.2694 27.9333 33.2694ZM21.7279 35.7228C21.8679 35.7671 21.9698 35.653 22.078 35.5516C22.6253 35.0064 23.1726 34.4549 23.7264 33.916C23.8791 33.7702 23.9109 33.6434 23.8536 33.4342C23.1154 30.8922 22.3835 28.3501 21.6643 25.8017C21.607 25.5988 21.5115 25.491 21.3206 25.415C20.2386 24.9649 19.163 24.5211 18.0938 24.052C17.8774 23.9569 17.7438 23.9949 17.5783 24.1408C16.2354 25.3326 14.8925 26.5243 13.5369 27.7035C13.3714 27.8493 13.3077 27.9887 13.3268 28.2106C13.505 30.5118 14.1733 32.6545 15.2934 34.6704C15.3889 34.8416 15.5035 34.905 15.6944 34.924C16.5154 35.0191 17.3301 35.1395 18.1447 35.2536C19.3285 35.4121 20.5123 35.5706 21.7279 35.7291V35.7228ZM30.9437 37.6689C30.9437 42.5122 34.9024 46.468 39.7584 46.468C44.6527 46.468 48.6241 42.5122 48.6241 37.6372C48.6241 32.8067 44.6463 28.8572 39.7839 28.8572C34.9024 28.8572 30.9437 32.8003 30.9437 37.6689ZM30.9437 42.5566C30.9182 42.4869 30.9118 42.4488 30.8927 42.4171C29.6135 39.9765 29.3334 37.4344 30.1226 34.7909C30.2054 34.5183 30.0781 34.5183 29.8744 34.5183C28.296 34.5183 26.7177 34.5183 25.1456 34.5183C24.9738 34.5183 24.8465 34.5563 24.7192 34.6831C24.1655 35.2473 23.6118 35.7988 23.0454 36.3504C22.9117 36.4771 22.8735 36.5786 22.9626 36.7624C23.79 38.5311 24.6047 40.2998 25.4257 42.0685C25.4829 42.1952 25.5402 42.303 25.6993 42.3347C27.4241 42.6897 29.1616 42.8102 30.9437 42.5566ZM44.6973 28.8699C44.7227 28.6163 44.7418 28.3945 44.78 28.1789C44.8118 27.9887 44.7355 27.862 44.5954 27.7352C43.2207 26.5244 41.846 25.3072 40.4776 24.09C40.3503 23.9759 40.2421 23.9506 40.083 24.0203C38.9629 24.5021 37.8427 24.9712 36.7226 25.4467C36.6208 25.491 36.5253 25.5291 36.4871 25.6559C36.2325 26.5687 35.9652 27.4816 35.6852 28.4642C38.791 27.19 41.7696 27.3358 44.6973 28.8699ZM16.3309 36.2743C18.342 38.9051 20.7987 40.7182 23.8473 41.8085C23.8409 41.7008 23.8473 41.6754 23.8346 41.6564C23.1408 40.154 22.4471 38.6515 21.7597 37.1491C21.6897 37.0033 21.5879 36.9716 21.4415 36.9526C20.6141 36.8448 19.7868 36.7244 18.953 36.6103C18.1129 36.4962 17.2728 36.3947 16.3309 36.2743ZM16.2736 17.757C14.4406 20.3308 13.4605 23.0884 13.295 26.1884C13.3841 26.144 13.4223 26.1313 13.4477 26.106C14.5806 25.1043 15.7135 24.1027 16.8527 23.1074C16.98 22.9933 17.0055 22.8856 16.98 22.7207C16.8909 22.1502 16.8209 21.5797 16.7382 21.0091C16.5918 19.9568 16.439 18.9108 16.2736 17.757ZM44.7227 26.1693C44.6273 23.0821 43.6535 20.3245 41.846 17.7887C41.8078 17.9472 41.7823 18.0359 41.7632 18.131C41.585 19.3799 41.4641 20.6414 41.2095 21.8776C41.0441 22.689 41.1904 23.2659 41.9096 23.6843C41.9605 23.716 41.9987 23.7667 42.0496 23.8048C42.9407 24.5908 43.8317 25.3769 44.7227 26.163V26.1693ZM24.9611 11.798C25.0374 11.8614 25.0629 11.8931 25.0884 11.9058C26.3549 12.4827 27.6214 13.0469 28.8816 13.6301C29.0598 13.7125 29.1871 13.6491 29.3334 13.5794C30.5236 13.0405 31.7074 12.508 32.8912 11.9628C32.9739 11.9248 33.0948 11.9248 33.1076 11.779C30.409 11.069 27.7105 11.069 24.9547 11.7917L24.9611 11.798Z" fill="#979797"/>
<path d="M24.4838 26.3976C24.4838 25.9222 24.662 25.5798 24.9993 25.3326C26.1894 24.4641 27.386 23.5956 28.5825 22.7335C28.9198 22.4926 29.2889 22.5306 29.5053 22.8095C29.7281 23.0948 29.6708 23.4878 29.3271 23.7414C28.2388 24.5402 27.1441 25.3326 26.0431 26.1187C25.8267 26.2708 25.7439 26.4039 25.8267 26.6892C26.0622 27.5387 26.2595 28.4008 26.4631 29.2567C26.5649 29.6751 26.3867 30.011 26.0303 30.0998C25.6676 30.1885 25.3621 29.9857 25.2539 29.5609C25.012 28.61 24.7765 27.6591 24.541 26.7082C24.5092 26.5878 24.5092 26.4673 24.4965 26.3976H24.4838Z" fill="#979797"/>
<path d="M32.21 37.6563C32.21 33.4977 35.6213 30.1124 39.79 30.1188C43.9651 30.1188 47.3638 33.523 47.3638 37.6753C47.3638 41.8276 43.946 45.2191 39.7773 45.2128C35.6022 45.2128 32.2036 41.8149 32.21 37.6563ZM33.4701 37.6499C33.4638 41.1239 36.3023 43.9576 39.79 43.9576C43.2523 43.9576 46.0972 41.1302 46.1036 37.6816C46.11 34.214 43.265 31.374 39.7837 31.374C36.315 31.374 33.4765 34.195 33.4701 37.6499Z" fill="#979797"/>
<path d="M39.1602 36.6927C38.9311 36.8829 38.772 37.0287 38.5492 37.0287C38.2946 37.0287 38.0973 36.9083 37.9828 36.6864C37.8555 36.4392 37.881 36.1983 38.0655 36.0017C38.4983 35.5516 38.9438 35.1079 39.3957 34.6768C39.5803 34.4993 39.8221 34.4866 40.0512 34.5944C40.3122 34.7149 40.4204 34.9367 40.4204 35.222C40.4204 36.1919 40.4204 37.1618 40.4204 38.1318C40.4204 38.5248 40.4267 38.9178 40.4204 39.3109C40.4204 39.5011 40.4649 39.5835 40.6686 39.5645C40.815 39.5518 40.9677 39.5518 41.1141 39.5645C41.4641 39.6088 41.6996 39.8878 41.6869 40.2174C41.6678 40.5407 41.4323 40.8006 41.0886 40.8006C40.2231 40.8133 39.3639 40.8133 38.4983 40.8006C38.1546 40.8006 37.9191 40.5344 37.9064 40.2111C37.8937 39.8878 38.1164 39.6215 38.441 39.5645C38.4665 39.5645 38.4919 39.5645 38.5174 39.5581C38.7211 39.5328 38.9947 39.6532 39.1157 39.5011C39.2557 39.3299 39.1602 39.051 39.1602 38.8228C39.1666 38.1381 39.1602 37.4535 39.1602 36.6991V36.6927Z" fill="#979797"/>
</svg>
