<svg xmlns="http://www.w3.org/2000/svg" width="40" height="40" viewBox="0 0 40 40" fill="none">
  <path d="M6.5 13.5L8.5 16V15.5H11L12.5 15L14 15.5H17L16.5 18H11L11.1383 30.2386L17.4524 24.8265C18.1173 24.2566 18.5 23.4245 18.5 22.5488V19L17 14L6.5 13.5L8.5 16V31.7929C8.5 32.2456 8.67986 32.6799 9 33C9.32014 33.3201 9.75435 33.5 10.2071 33.5H12.5L12.1875 33.1875C11.7406 32.7406 11.4463 32.164 11.3465 31.5399L11.1383 30.2386L18.2084 24.1785C18.7192 23.7407 19.3698 23.5 20.0426 23.5H20.2094C20.4019 23.5 20.5931 23.469 20.7757 23.4081C21.5068 23.1644 22 22.4801 22 21.7094V19L21.5 16.5V14.6514C21.5 13.9321 21.8595 13.2603 22.458 12.8613C22.8114 12.6257 23.2267 12.5 23.6514 12.5H24.5L25.5 15H24V17.5H25.5L28.5 26H29.5L31 24L32 21V18.5L31 17.5H29.5L28.5 18.5V26L25.5 17.5V15L24.5 12.5L24.8405 12.4149C25.862 12.1595 26.6595 11.362 26.9149 10.3405L26.9444 10.2223C26.9813 10.0746 27 9.92306 27 9.77089C27 9.2773 26.8039 8.80392 26.4549 8.4549L26 8L25.3918 7.69592C25.1342 7.56708 24.85 7.5 24.5619 7.5C24.1955 7.5 23.8373 7.60845 23.5325 7.81169L23.4303 7.87983C22.855 8.26333 22.1184 8.30919 21.5 8L21.2836 7.89181C20.7819 7.64094 20.201 7.59966 19.6689 7.77705C19.2347 7.92177 18.7653 7.92177 18.3311 7.77705L17.987 7.66235C17.6668 7.55558 17.3757 7.37571 17.137 7.13698C16.7291 6.72913 16.176 6.5 15.5992 6.5H15.25C14.4631 6.5 13.7221 6.87049 13.25 7.5L12.8737 8.00173C12.6385 8.3154 12.2692 8.5 11.8772 8.5C11.6312 8.5 11.3908 8.42721 11.1862 8.29079L10.3514 7.73424C10.1223 7.5815 9.85307 7.5 9.57771 7.5C9.20781 7.5 8.85306 7.64694 8.5915 7.9085L8.20711 8.29289C7.75435 8.74565 7.5 9.35971 7.5 10C7.5 10.6403 7.75435 11.2544 8.20711 11.7071L8.32438 11.8244C8.75697 12.257 9.34369 12.5 9.95546 12.5C10.3136 12.5 10.6668 12.4166 10.987 12.2565L11.226 12.137C12.0417 11.7291 12.9861 11.662 13.8512 11.9504L14 12L15.5555 12.3889C15.8507 12.4627 16.1539 12.5 16.4582 12.5H17.1525C17.6951 12.5 18.2156 12.7156 18.5993 13.0993C18.8615 13.3615 19.0475 13.69 19.1374 14.0498L19.5 15.5L18.5 19L17 14L6.5 13.5L5.8 12.5667C5.28071 11.8743 5 11.0321 5 10.1667V10.1079C5 9.38296 5.19703 8.67161 5.57003 8.04995L6.09687 7.17189C6.36309 6.72818 6.71288 6.34034 7.12684 6.02987L7.69292 5.60531C8.2168 5.2124 8.854 5 9.50886 5H9.58763C9.86076 5 10.1321 5.04403 10.3912 5.1304C11.095 5.36499 11.8661 5.28034 12.5022 4.89867L13.0603 4.5638C13.6752 4.19488 14.3788 4 15.0958 4H15.4042C16.1212 4 16.8248 4.19488 17.4397 4.5638L18.2866 5.07198C18.7394 5.34365 19.2883 5.4039 19.7892 5.23692C20.2443 5.08522 20.741 5.12053 21.1701 5.33506L21.4062 5.45308C22.0947 5.79737 22.9053 5.79737 23.5938 5.45308L23.6861 5.40696C24.2136 5.1432 24.814 5.0628 25.3923 5.17846L25.8281 5.26561C26.5922 5.41844 27.2941 5.79405 27.8451 6.3451L28.3284 6.82843C29.0786 7.57857 29.5 8.59599 29.5 9.65685V10.5986C29.5 11.1864 29.326 11.761 29 12.25C28.674 12.739 28.5 13.3136 28.5 13.9014V15.5L30.5377 15.1604C31.1631 15.0561 31.8055 15.1527 32.3726 15.4363L32.6056 15.5528C33.1862 15.8431 33.6569 16.3138 33.9472 16.8944L34.1833 17.3666C34.3916 17.7831 34.5 18.2425 34.5 18.7082V21.3842C34.5 21.7905 34.4175 22.1926 34.2574 22.566L33.1725 25.0976C33.0581 25.3644 32.9056 25.6133 32.7197 25.8364L30.9084 28.0099C30.6496 28.3205 30.2663 28.5 29.862 28.5C29.1098 28.5 28.5 29.1098 28.5 29.862V32C28.5 32.6491 28.2895 33.2807 27.9 33.8L27.5047 34.327C27.1746 34.7672 26.7298 35.1081 26.2189 35.3124L25.0364 35.7854C24.6821 35.9272 24.3039 36 23.9223 36H10.2082C9.74247 36 9.28313 35.8916 8.86656 35.6833L8.39443 35.4472C7.81384 35.1569 7.34308 34.6862 7.05279 34.1056L6.81672 33.6334C6.60844 33.2169 6.5 32.7575 6.5 32.2918V13.5Z" fill="white"/>
</svg>