<svg xmlns="http://www.w3.org/2000/svg" width="40" height="40" viewBox="0 0 40 40" fill="none">
  <path d="M24 32C24 33.5148 23.2376 34.6741 21.9993 35.432C20.7615 36.1893 19.2362 36.1893 18.0007 35.432C16.7621 34.6741 16 33.5148 16 32" fill="white"/>
  <path d="M19.9996 4C21.2276 4 22.2167 4.75535 22.2167 5.91694C22.2167 6.64806 22.2423 7.1936 22.7029 7.33333C26.619 8.51309 29.1302 11.2784 29.1302 14.8696V20.9055C29.1302 23.6708 30.2642 24.2306 31.6913 25.2883C33.758 26.8176 33.2862 30.0022 30.9146 30H9.08537C6.71382 30.0022 6.24202 26.8176 8.30873 25.2883C9.7341 24.2306 10.8698 23.6708 10.8698 20.9055V14.8696C10.8698 11.2784 13.381 8.51309 17.2971 7.33333C17.7564 7.1936 17.7833 6.64806 17.7833 5.91694C17.7837 4.75535 18.7732 4 19.9996 4Z" fill="white"/>
</svg>