<svg width="51" height="20" viewBox="0 0 51 20" fill="none" xmlns="http://www.w3.org/2000/svg">
<path d="M29.9957 13.377C29.9957 16.9337 28 19.0525 24.8864 19.0525C23.1144 19.0525 21.7057 18.181 21.0517 16.9337L20.9399 18.8346H19.3691V2.89209H21.1635V9.61878C21.8567 8.48587 23.2039 7.69609 24.8808 7.69609C28 7.69609 29.9957 9.81486 29.9957 13.377ZM28.2013 13.377C28.2013 10.8443 26.8765 9.22662 24.6852 9.22662C22.5554 9.22662 21.1691 10.7789 21.1691 13.2463V13.5077C21.1691 15.9751 22.561 17.5274 24.6852 17.5274C26.8765 17.522 28.2013 15.9097 28.2013 13.377Z" fill="#181818"/>
<path d="M41.6677 14.0308H33.2212C33.4448 16.2367 34.8144 17.5222 36.8715 17.5222C38.5093 17.5222 39.6273 16.9557 40.0298 15.9045L41.5335 16.667C40.6838 18.154 39.2919 19.0472 36.8715 19.0472C33.4896 19.0472 31.4492 16.9067 31.4492 13.3718C31.4492 9.83685 33.3554 7.69629 36.7373 7.69629C39.9851 7.69629 41.7571 9.98936 41.7571 12.8053C41.7627 13.3119 41.718 13.7258 41.6677 14.0308ZM33.2436 12.4785H40.0354C39.7894 10.4687 38.6435 9.22682 36.7429 9.22682C34.7473 9.22682 33.5119 10.4305 33.2436 12.4785Z" fill="#181818"/>
<path d="M50.3438 18.0722C49.6507 18.6823 48.6836 19.0526 47.4538 19.0526C45.7936 19.0526 44.3626 18.2465 44.3402 16.1278V9.42286H42.0986V7.91412H44.3402V5.29425L46.1346 4.81494V7.91412H50.2823V9.42286H46.1346V15.8227C46.1346 16.8903 46.8277 17.4186 47.8172 17.4186C48.6221 17.4186 49.2091 17.1136 49.7233 16.6125L50.3438 18.0722Z" fill="#181818"/>
<path d="M0 15.915V2.90283H4.01359V14.5152C4.01359 15.1035 4.24278 15.3813 4.9024 15.3813H6.47318V18.7855H3.18628C1.0006 18.7909 0 17.9848 0 15.915Z" fill="#181818"/>
<path d="M18.5079 1.54687L11.649 0L10 10.1254L15.0645 11.2638L18.5079 1.54687Z" fill="#FFDA00"/>
<path d="M11.32 18.851C13.1816 18.851 14.6907 17.3805 14.6907 15.5666C14.6907 13.7527 13.1816 12.2822 11.32 12.2822C9.45835 12.2822 7.94922 13.7527 7.94922 15.5666C7.94922 17.3805 9.45835 18.851 11.32 18.851Z" fill="#FFDA00"/>
</svg>
