<svg width="70" height="35" viewBox="0 0 70 35" fill="none" xmlns="http://www.w3.org/2000/svg">
<path d="M39.5364 21.1809C39.5364 25.7488 37.0391 28.47 33.1427 28.47C30.9252 28.47 29.1623 27.3508 28.3439 25.7488L28.204 28.1902H26.2383V7.71484H28.4838V16.3541C29.3512 14.8991 31.0371 13.8847 33.1357 13.8847C37.0391 13.8847 39.5364 16.6059 39.5364 21.1809ZM37.2909 21.1809C37.2909 17.928 35.633 15.8504 32.8908 15.8504C30.2256 15.8504 28.4908 17.8441 28.4908 21.013V21.3488C28.4908 24.5176 30.2326 26.5113 32.8908 26.5113C35.633 26.5043 37.2909 24.4337 37.2909 21.1809Z" fill="#181818"/>
<path d="M54.1429 22.0203H43.573C43.8528 24.8535 45.5667 26.5044 48.1409 26.5044C50.1906 26.5044 51.5896 25.7768 52.0933 24.4267L53.975 25.4061C52.9118 27.3158 51.1699 28.463 48.1409 28.463C43.9088 28.463 41.3555 25.7139 41.3555 21.1739C41.3555 16.6339 43.7409 13.8848 47.9731 13.8848C52.0373 13.8848 54.2549 16.8298 54.2549 20.4464C54.2619 21.097 54.2059 21.6286 54.1429 22.0203ZM43.601 20.0267H52.1003C51.7925 17.4454 50.3585 15.8505 47.98 15.8505C45.4827 15.8505 43.9367 17.3964 43.601 20.0267Z" fill="#181818"/>
<path d="M64.9998 27.2107C64.1323 27.9942 62.9221 28.4699 61.3832 28.4699C59.3056 28.4699 57.5148 27.4346 57.4868 24.7134V16.1021H54.6816V14.1644H57.4868V10.7997L59.7323 10.1841V14.1644H64.9228V16.1021H59.7323V24.3217C59.7323 25.6927 60.5997 26.3713 61.8379 26.3713C62.8452 26.3713 63.5797 25.9796 64.2233 25.336L64.9998 27.2107Z" fill="#181818"/>
<path d="M2 24.4404V7.72852H7.02265V22.6426C7.02265 23.3981 7.30946 23.7548 8.13491 23.7548H10.1006V28.1269H5.98734C3.25217 28.1339 2 27.0986 2 24.4404Z" fill="#181818"/>
<path d="M25.1616 5.98668L16.5783 4L14.5146 17.0043L20.8524 18.4664L25.1616 5.98668Z" fill="#FFDA00"/>
<path d="M16.1655 28.2108C18.4951 28.2108 20.3836 26.3222 20.3836 23.9926C20.3836 21.663 18.4951 19.7744 16.1655 19.7744C13.8358 19.7744 11.9473 21.663 11.9473 23.9926C11.9473 26.3222 13.8358 28.2108 16.1655 28.2108Z" fill="#FFDA00"/>
</svg>
