<svg width="44" height="23" viewBox="0 0 44 23" fill="none" xmlns="http://www.w3.org/2000/svg">
<path d="M12.2773 4.32398L5.62773 2.81665L4.02734 12.7037L8.93759 13.8167L12.2773 4.32398Z" fill="#979797"/>
<path d="M5.05859 21.3792C6.76722 21.3792 8.15234 19.994 8.15234 18.2854C8.15234 16.5768 6.76722 15.1917 5.05859 15.1917C3.34996 15.1917 1.96484 16.5768 1.96484 18.2854C1.96484 19.994 3.34996 21.3792 5.05859 21.3792Z" fill="#979797"/>
<path d="M15.7148 21.1115V4.87915H17.8088V11.6461H17.852C17.9899 11.3914 18.1562 11.154 18.3476 10.9389C18.5801 10.6729 18.8479 10.442 19.1433 10.2531C19.8836 9.77458 20.7439 9.52875 21.6183 9.54587C22.1636 9.54598 22.7052 9.63906 23.2209 9.82132C23.759 10.016 24.2429 10.3425 24.6308 10.7724C25.0831 11.2878 25.4263 11.894 25.6386 12.5528C25.8964 13.2902 26.0258 14.2116 26.0267 15.3172C26.0367 16.1689 25.9281 17.0177 25.7042 17.8378C25.5158 18.5344 25.1935 19.1851 24.7564 19.7516C24.3461 20.2705 23.823 20.6832 23.2292 20.9566C22.5777 21.2468 21.8732 21.3901 21.1632 21.3769C20.4388 21.4001 19.7199 21.2405 19.0693 20.9121C18.5242 20.6303 18.0632 20.2026 17.7348 19.6741H17.6706L17.4333 21.1087L15.7148 21.1115ZM17.6943 15.5611C17.6943 17.0789 17.967 18.1788 18.5123 18.8607C19.0577 19.5426 19.8022 19.8854 20.7458 19.8893C21.7928 19.8893 22.5783 19.4986 23.1022 18.7172C23.6261 17.9358 23.8895 16.8264 23.8923 15.389C23.9047 14.699 23.8349 14.01 23.6843 13.3375C23.5796 12.8564 23.3821 12.4018 23.1036 12.0005C22.8687 11.6738 22.553 11.4177 22.1892 11.2588C21.8069 11.0992 21.3972 11.0202 20.9845 11.0264C20.542 11.0234 20.1032 11.1102 19.6933 11.2817C19.2884 11.4583 18.9329 11.7359 18.6589 12.0894C18.3404 12.507 18.1034 12.9839 17.9609 13.4939C17.7727 14.1655 17.6828 14.8622 17.6943 15.5611Z" fill="#979797"/>
<path d="M28.0898 4.87915H30.1523V7.26192H28.0898V4.87915ZM28.0898 9.91446H30.1523V21.3792H28.0898V9.91446Z" fill="#979797"/>
<path d="M31.75 9.00415H40.4432V10.7032L34.1575 19.4896H40.4648V21.3792H31.5273V19.6313L37.8578 10.7961H31.75V9.00415Z" fill="#979797"/>
</svg>
