<svg width="9" height="16" viewBox="0 0 9 16" fill="none" xmlns="http://www.w3.org/2000/svg">
<path d="M5.41563 12.1455C5.41563 13.0944 5.41563 14.0433 5.41563 14.9922C5.41563 15.4277 5.33786 15.5055 4.89452 15.5055C4.17897 15.5055 3.46341 15.5055 2.74786 15.5055C2.36675 15.5055 2.27341 15.42 2.27341 15.0388C2.27341 13.1022 2.27341 11.1655 2.27341 9.22107C2.27341 9.04218 2.21897 9.00329 2.04786 9.00329C1.52675 9.01107 1.00563 9.00329 0.484524 9.00329C0.118968 9.00329 0.0334125 8.91774 0.0256348 8.55218C0.0256348 7.8444 0.0256348 7.12885 0.0256348 6.42107C0.0256348 6.03996 0.11119 5.96218 0.484524 5.9544C1.02119 5.9544 1.56564 5.9544 2.1023 5.9544C2.22675 5.9544 2.26564 5.92329 2.26564 5.79107C2.26564 5.22329 2.25008 4.64774 2.26564 4.07996C2.30452 3.01441 2.63119 2.06552 3.47897 1.35774C4.07008 0.867738 4.77008 0.626627 5.52452 0.595516C6.24786 0.564405 6.97897 0.579961 7.71008 0.587738C7.95119 0.587738 8.0523 0.68885 8.0523 0.937738C8.0523 1.66107 8.0523 2.38441 8.0523 3.10774C8.0523 3.35663 7.95119 3.44996 7.68675 3.45774C7.19675 3.47329 6.70675 3.47329 6.21675 3.48107C5.64897 3.48885 5.42341 3.70663 5.41563 4.27441C5.40786 4.77218 5.41563 5.26996 5.41563 5.76774C5.41563 5.90774 5.47008 5.92329 5.58675 5.92329C6.22452 5.92329 6.8623 5.92329 7.50008 5.92329C7.90452 5.92329 7.99786 6.00885 7.99786 6.41329C7.99786 7.12885 7.99786 7.8444 7.99786 8.56774C7.99786 8.90218 7.9123 8.98774 7.57786 8.98774C6.91675 8.98774 6.25564 8.98774 5.59452 8.98774C5.45452 8.98774 5.42341 9.02663 5.42341 9.15885C5.42341 10.1544 5.42341 11.15 5.42341 12.1455H5.41563Z" fill="#031E10"/>
</svg>
