<svg width="18" height="18" viewBox="0 0 18 18" fill="none" xmlns="http://www.w3.org/2000/svg">
<path d="M3.36127 5.65557C4.39571 5.67113 5.23571 6.05224 5.91238 6.79891C5.99015 6.88446 6.0446 6.91557 6.15349 6.85335C7.82571 5.96668 9.50571 5.0878 11.1857 4.20891C11.3102 4.14668 11.2946 4.06891 11.279 3.9678C10.9835 2.27224 12.0646 0.615574 13.7446 0.180018C15.689 -0.325537 17.6335 0.988907 17.9057 2.98002C18.1702 4.96335 16.6302 6.75224 14.6235 6.76002C13.6746 6.76002 12.8579 6.42557 12.1968 5.74113C12.0957 5.64002 12.0335 5.64002 11.9168 5.70224C10.229 6.58891 8.54126 7.47557 6.85349 8.36224C6.7446 8.41669 6.70571 8.47891 6.72904 8.60335C6.77571 8.8678 6.76793 9.13224 6.72904 9.39668C6.71349 9.4978 6.73682 9.55224 6.83015 9.59891C8.40904 10.4234 9.98793 11.2556 11.5668 12.0956C11.6602 12.15 11.7068 12.1111 11.7613 12.0411C12.679 11.0456 13.8146 10.6567 15.129 10.9367C16.4513 11.2167 17.3379 12.0334 17.7657 13.3089C18.4113 15.2534 17.2368 17.3145 15.2224 17.8122C13.2702 18.2945 11.2713 16.9878 10.9213 14.9967C10.8513 14.6 10.8435 14.1956 10.9213 13.7989C10.9446 13.6822 10.9213 13.6278 10.8124 13.5656C9.25682 12.7567 7.70904 11.94 6.15349 11.1234C6.06015 11.0767 6.01349 11.0845 5.94349 11.1622C5.21238 11.9945 4.28682 12.3756 3.1746 12.3211C1.65793 12.2434 0.289043 10.9911 0.0945985 9.49002C-0.15429 7.58446 1.06682 5.95891 2.97238 5.67113C3.11238 5.6478 3.25238 5.6478 3.36904 5.64002L3.36127 5.65557Z" fill="#031E10"/>
</svg>
