<svg width="20" height="20" viewBox="0 0 20 20" fill="none" xmlns="http://www.w3.org/2000/svg">
<path d="M1.05559 18.8121C1.05559 18.7577 1.05559 18.6955 1.05559 18.641C1.07893 18.5866 1.10226 18.5399 1.12559 18.4855C1.59226 17.1243 2.05115 15.7555 2.51782 14.3943C2.56448 14.2543 2.55671 14.1455 2.48671 14.021C1.93448 13.0643 1.60004 12.0299 1.45226 10.9332C1.25004 9.40879 1.41337 7.92323 2.02782 6.50768C3.29559 3.58323 5.50448 1.82545 8.61559 1.20323C8.94226 1.14101 9.28448 1.1099 9.61115 1.06323C9.96893 1.06323 10.3345 1.06323 10.6923 1.06323C10.91 1.08657 11.1278 1.1099 11.3456 1.14101C13.6945 1.49101 15.6312 2.5799 17.0934 4.45434C18.5167 6.27434 19.1078 8.35101 18.89 10.6532C18.7423 12.2243 18.1978 13.6555 17.2411 14.9155C15.5689 17.1321 13.3289 18.3299 10.56 18.4932C9.00448 18.5866 7.52671 18.2521 6.14226 17.5443C6.03337 17.4899 5.94782 17.4821 5.83115 17.521C4.37671 17.9877 2.91448 18.4466 1.46004 18.9132C1.28893 18.9677 1.15671 18.9599 1.04004 18.8199L1.05559 18.8121ZM3.81671 16.2221C3.88671 16.2377 3.93337 16.2143 3.98004 16.1988C4.62559 15.9966 5.27893 15.7943 5.92448 15.5766C6.14226 15.4988 6.31337 15.5299 6.50782 15.6466C7.48782 16.261 8.56115 16.5955 9.71226 16.6655C11.19 16.751 12.5667 16.4166 13.8267 15.631C15.3589 14.6743 16.3778 13.321 16.86 11.5866C17.2956 10.0388 17.1712 8.52212 16.5334 7.05212C15.9267 5.6599 14.9545 4.57879 13.6323 3.82434C12.2167 3.00768 10.6923 2.71212 9.07448 2.96879C7.44893 3.22545 6.06448 3.95657 4.96782 5.19323C3.54448 6.79545 2.97671 8.6699 3.26448 10.7932C3.41226 11.8666 3.81671 12.8466 4.43893 13.7255C4.54004 13.8655 4.55559 14.0055 4.50115 14.1688C4.32226 14.6666 4.15893 15.1721 3.98782 15.6699C3.92559 15.8566 3.86337 16.0432 3.80115 16.2299L3.81671 16.2221Z" fill="#031E10"/>
<path d="M12.5589 13.9744C12.0611 13.9744 11.5711 13.8344 11.0889 13.6867C9.14444 13.1033 7.76778 11.8044 6.64778 10.1789C6.25111 9.6111 5.90889 9.01999 5.8 8.31999C5.69889 7.62776 5.8 6.97443 6.19667 6.38332C6.39889 6.08776 6.66333 5.88554 7.02111 5.80776C7.23889 5.7611 7.44889 5.71443 7.67444 5.6911C7.95444 5.65999 8.17222 5.76888 8.28889 6.01776C8.57667 6.60888 8.81 7.22332 9.05889 7.82999C9.16778 8.10221 9.02778 8.33554 8.88 8.54554C8.75556 8.72443 8.6 8.88776 8.46 9.05888C8.41333 9.1211 8.38222 9.16777 8.43667 9.23777C9.15222 10.2333 10 11.0655 11.1356 11.5633C11.26 11.6178 11.33 11.6022 11.4156 11.4933C11.5944 11.26 11.7811 11.0422 11.96 10.8167C12.2089 10.5055 12.4033 10.4511 12.7689 10.6144C13.1267 10.77 13.4767 10.9411 13.8267 11.1044C14.0444 11.2055 14.2544 11.3144 14.4644 11.4233C14.6511 11.5167 14.7289 11.6644 14.7367 11.8744C14.7989 13.1967 13.7256 13.8578 12.8 13.9511C12.7222 13.9511 12.6522 13.9589 12.5589 13.9667V13.9744Z" fill="#031E10"/>
</svg>
