<svg width="32" height="36" viewBox="0 0 32 36" fill="none" xmlns="http://www.w3.org/2000/svg">
<path d="M3 36C2.175 36 1.46875 35.7 0.88125 35.1C0.29375 34.5 0 33.7787 0 32.9362V13.0213C0 12.5362 0.10625 12.0766 0.31875 11.6426C0.53125 11.2085 0.825 10.8511 1.2 10.5702L14.2 0.612766C14.4765 0.408511 14.7656 0.255319 15.0672 0.153191C15.3688 0.0510638 15.6831 0 16.0098 0C16.3366 0 16.6486 0.0510638 16.9457 0.153191C17.2429 0.255319 17.5276 0.408511 17.8 0.612766L30.8 10.5702C31.175 10.8511 31.4688 11.2085 31.6812 11.6426C31.8938 12.0766 32 12.5362 32 13.0213V32.9362C32 33.7787 31.7063 34.5 31.1187 35.1C30.5312 35.7 29.825 36 29 36H20V21.7021H12V36H3Z" fill="#06378D"/>
</svg>
