<svg width="43" height="31" viewBox="0 0 43 31" fill="none" xmlns="http://www.w3.org/2000/svg">
<path d="M24.4318 18.4062C26.0606 18.4062 27.4451 17.8411 28.5852 16.7109C29.7254 15.5807 30.2955 14.2083 30.2955 12.5938C30.2955 10.9792 29.7254 9.60677 28.5852 8.47656C27.4451 7.34635 26.0606 6.78125 24.4318 6.78125C22.803 6.78125 21.4186 7.34635 20.2784 8.47656C19.1383 9.60677 18.5682 10.9792 18.5682 12.5938C18.5682 14.2083 19.1383 15.5807 20.2784 16.7109C21.4186 17.8411 22.803 18.4062 24.4318 18.4062ZM8.79545 25.1875C7.9892 25.1875 7.29901 24.9029 6.72486 24.3338C6.15071 23.7646 5.86364 23.0805 5.86364 22.2812V2.90625C5.86364 2.10703 6.15071 1.42285 6.72486 0.853711C7.29901 0.28457 7.9892 0 8.79545 0H40.0682C40.8744 0 41.5646 0.28457 42.1388 0.853711C42.7129 1.42285 43 2.10703 43 2.90625V22.2812C43 23.0805 42.7129 23.7646 42.1388 24.3338C41.5646 24.9029 40.8744 25.1875 40.0682 25.1875H8.79545ZM2.93182 31C2.12557 31 1.43537 30.7154 0.861222 30.1463C0.287074 29.5771 0 28.893 0 28.0938V7.26562C0 6.85391 0.141297 6.50879 0.423892 6.23027C0.706519 5.95176 1.05671 5.8125 1.47446 5.8125C1.89224 5.8125 2.23958 5.95176 2.51648 6.23027C2.79337 6.50879 2.93182 6.85391 2.93182 7.26562V28.0938H35.6705C36.0858 28.0938 36.4339 28.2338 36.7149 28.5139C36.9959 28.7941 37.1364 29.1412 37.1364 29.5553C37.1364 29.9695 36.9959 30.3138 36.7149 30.5883C36.4339 30.8628 36.0858 31 35.6705 31H2.93182ZM8.79545 7.75C10.1636 7.75 11.3201 7.28177 12.2648 6.34531C13.2095 5.40885 13.6818 4.2625 13.6818 2.90625H8.79545V7.75ZM40.0682 7.75V2.90625H35.1818C35.1818 4.2625 35.6542 5.40885 36.5989 6.34531C37.5436 7.28177 38.7 7.75 40.0682 7.75ZM8.79545 22.2812H13.6818C13.6818 20.925 13.2095 19.7786 12.2648 18.8422C11.3201 17.9057 10.1636 17.4375 8.79545 17.4375V22.2812ZM35.1818 22.2812H40.0682V17.4375C38.7 17.4375 37.5436 17.9057 36.5989 18.8422C35.6542 19.7786 35.1818 20.925 35.1818 22.2812Z" fill="#06378D"/>
</svg>
