<svg width="34" height="34" viewBox="0 0 34 34" fill="none" xmlns="http://www.w3.org/2000/svg">
<path d="M17.4585 17.583L14.2918 14.4163C14.0418 14.1663 13.7502 14.0413 13.4168 14.0413C13.0835 14.0413 12.7918 14.1663 12.5418 14.4163C12.2918 14.6663 12.1668 14.958 12.1668 15.2913C12.1668 15.6247 12.2918 15.9163 12.5418 16.1663L16.5418 20.1663C16.7918 20.4163 17.0835 20.5413 17.4168 20.5413C17.7502 20.5413 18.0418 20.4163 18.2918 20.1663L26.0418 12.4163C26.2918 12.1663 26.4168 11.8677 26.4168 11.5205C26.4168 11.1733 26.2918 10.8886 26.0418 10.6663C25.7918 10.4441 25.4932 10.34 25.146 10.3538C24.7988 10.3677 24.514 10.4858 24.2918 10.708L17.4585 17.583ZM7.8335 28.6663C7.16683 28.6663 6.5835 28.4163 6.0835 27.9163C5.5835 27.4163 5.3335 26.833 5.3335 26.1663V2.83301C5.3335 2.16634 5.5835 1.58301 6.0835 1.08301C6.5835 0.583008 7.16683 0.333008 7.8335 0.333008H31.1668C31.8335 0.333008 32.4168 0.583008 32.9168 1.08301C33.4168 1.58301 33.6668 2.16634 33.6668 2.83301V26.1663C33.6668 26.833 33.4168 27.4163 32.9168 27.9163C32.4168 28.4163 31.8335 28.6663 31.1668 28.6663H7.8335ZM2.8335 33.6663C2.16683 33.6663 1.5835 33.4163 1.0835 32.9163C0.583496 32.4163 0.333496 31.833 0.333496 31.1663V6.58301C0.333496 6.2219 0.451552 5.92329 0.687663 5.68717C0.923774 5.45106 1.22238 5.33301 1.5835 5.33301C1.94461 5.33301 2.24322 5.45106 2.47933 5.68717C2.71544 5.92329 2.8335 6.2219 2.8335 6.58301V31.1663H27.4168C27.7779 31.1663 28.0765 31.2844 28.3127 31.5205C28.5488 31.7566 28.6668 32.0552 28.6668 32.4163C28.6668 32.7775 28.5488 33.0761 28.3127 33.3122C28.0765 33.5483 27.7779 33.6663 27.4168 33.6663H2.8335Z" fill="#06378D"/>
</svg>
