<svg width="34" height="34" viewBox="0 0 34 34" fill="none" xmlns="http://www.w3.org/2000/svg">
<path d="M17.0002 33.6663C14.7224 33.6663 12.5696 33.2288 10.5418 32.3538C8.51405 31.4788 6.74322 30.2844 5.22933 28.7705C3.71544 27.2566 2.521 25.4858 1.646 23.458C0.770996 21.4302 0.333496 19.2775 0.333496 16.9997C0.333496 14.6941 0.770996 12.5344 1.646 10.5205C2.521 8.50662 3.71544 6.74273 5.22933 5.22884C6.74322 3.71495 8.51405 2.52051 10.5418 1.64551C12.5696 0.770508 14.7224 0.333008 17.0002 0.333008C19.3057 0.333008 21.4654 0.770508 23.4793 1.64551C25.4932 2.52051 27.2571 3.71495 28.771 5.22884C30.2849 6.74273 31.4793 8.50662 32.3543 10.5205C33.2293 12.5344 33.6668 14.6941 33.6668 16.9997C33.6668 19.2775 33.2293 21.4302 32.3543 23.458C31.4793 25.4858 30.2849 27.2566 28.771 28.7705C27.2571 30.2844 25.4932 31.4788 23.4793 32.3538C21.4654 33.2288 19.3057 33.6663 17.0002 33.6663ZM25.5418 13.1247L28.4168 12.1247L29.1668 9.45801C28.2224 7.98579 27.0557 6.72884 25.6668 5.68717C24.2779 4.64551 22.7085 3.8469 20.9585 3.29134L18.2502 5.08301V7.99967L25.5418 13.1247ZM8.50016 13.1247L15.7502 7.99967V5.08301L13.0835 3.29134C11.3335 3.8469 9.76405 4.64551 8.37516 5.68717C6.98627 6.72884 5.81961 7.98579 4.87516 9.45801L5.79183 12.1247L8.50016 13.1247ZM6.25016 26.458L8.75016 26.1663L10.3752 23.458L7.79183 15.4997L4.8335 14.4997L2.8335 16.1247C2.8335 18.1247 3.05572 19.9511 3.50016 21.6038C3.94461 23.2566 4.86127 24.8747 6.25016 26.458ZM17.0002 31.1663C17.7502 31.1663 18.5071 31.0969 19.271 30.958C20.0349 30.8191 20.8335 30.6386 21.6668 30.4163L23.0418 27.4163L21.7085 25.1247H12.3335L11.0002 27.4163L12.3752 30.4163C13.0974 30.6386 13.8613 30.8191 14.6668 30.958C15.4724 31.0969 16.2502 31.1663 17.0002 31.1663ZM12.5835 22.6247H21.2502L23.7918 14.9997L17.0002 10.1247L10.0835 14.9997L12.5835 22.6247ZM27.7918 26.458C29.1529 24.8747 30.0557 23.2566 30.5002 21.6038C30.9446 19.9511 31.1668 18.1247 31.1668 16.1247L29.1668 14.7497L26.2502 15.4997L23.6668 23.458L25.2502 26.1663L27.7918 26.458Z" fill="#06378D"/>
</svg>
