<svg width="33" height="32" viewBox="0 0 33 32" fill="none" xmlns="http://www.w3.org/2000/svg">
<path fill-rule="evenodd" clip-rule="evenodd" d="M15.3859 0.0301123C13.0654 0.252473 11.3015 0.746093 9.37387 1.7127C7.84243 2.48058 6.59681 3.39197 5.28164 4.70681C3.87515 6.11307 2.99272 7.34794 2.15145 9.08743C1.16532 11.1263 0.666972 13.155 0.584727 15.4656C0.489786 18.1325 1.03829 20.6706 2.22506 23.0564C3.06108 24.7371 3.92006 25.9261 5.28164 27.2874C6.65822 28.6637 7.85281 29.5231 9.53805 30.3496C10.7139 30.9263 11.4732 31.2071 12.6652 31.506C15.7933 32.2905 18.9306 32.14 21.9867 31.0591C22.9131 30.7315 24.5302 29.9212 25.3616 29.3681C27.6443 27.8494 29.5308 25.7525 30.7799 23.3453C31.91 21.1674 32.4755 19.0065 32.5637 16.5286C32.6587 13.8617 32.1101 11.3236 30.9234 8.93779C30.1441 7.3712 29.2765 6.1434 28.0584 4.88321C26.7077 3.48564 25.3828 2.52141 23.6104 1.64585C21.7578 0.730711 20.0316 0.242218 17.9815 0.0528111C17.3443 -0.00603069 15.8957 -0.0187245 15.3859 0.0301123ZM21.1917 8.9049C21.6685 9.06473 22.1498 9.34105 22.5247 9.67015L22.7437 9.86238L23.177 9.74994C23.6982 9.61475 24.3881 9.34549 24.7518 9.13533C24.899 9.05028 25.0176 9.01308 25.0176 9.05197C25.0176 9.18754 24.6506 9.84749 24.3963 10.169C24.2552 10.3476 23.9985 10.5991 23.826 10.7279C23.6535 10.8566 23.5398 10.9711 23.5734 10.9823C23.6712 11.0149 24.8956 10.7035 25.2239 10.5626L25.5239 10.4337L25.4115 10.6278C25.2545 10.8987 24.267 11.9349 23.9689 12.1414L23.722 12.3125L23.6851 13.2637C23.6248 14.8209 23.2823 16.1211 22.5453 17.5917C21.0475 20.58 18.3702 22.5893 15.1781 23.1207C12.8131 23.5144 10.6666 23.2104 8.59989 22.1893C7.47229 21.6322 7.4716 21.6575 8.61509 21.6482C9.45161 21.6414 9.69122 21.6163 10.2001 21.4824C11.2087 21.2171 12.1402 20.7916 12.8117 20.2898L13.0208 20.1335L12.7179 20.0945C12.2693 20.0365 11.6475 19.8284 11.258 19.6058C10.7924 19.3398 10.1438 18.6742 9.90474 18.217C9.55744 17.5528 9.53255 17.5917 10.305 17.5917C11.2175 17.5917 11.3471 17.5317 10.8193 17.3535C10.5962 17.2781 10.2729 17.1346 10.1009 17.0344C9.66239 16.779 9.013 16.099 8.77033 15.6412C8.54973 15.2249 8.31845 14.4224 8.31845 14.0732C8.31845 13.8913 8.33552 13.8652 8.4279 13.9059C8.73774 14.0423 9.38394 14.2357 9.63537 14.2673L9.92032 14.3031L9.44661 13.8213C8.69052 13.0524 8.35791 12.2418 8.36373 11.1822C8.36692 10.5984 8.43772 10.265 8.66932 9.7435L8.8223 9.39908L9.61798 10.1835C11.112 11.6564 12.9012 12.6257 14.8543 13.0206C15.3502 13.1209 16.372 13.2395 16.4103 13.2012C16.4212 13.1903 16.4055 13.034 16.3753 12.854C16.2622 12.1784 16.4691 11.1795 16.8604 10.512C17.3766 9.63126 18.4413 8.90071 19.4352 8.74538C19.9559 8.6639 20.6651 8.72831 21.1917 8.9049Z" fill="white"/>
</svg>
