<svg width="33" height="32" viewBox="0 0 33 32" fill="none" xmlns="http://www.w3.org/2000/svg">
<path fill-rule="evenodd" clip-rule="evenodd" d="M15.0552 0.0388523C10.0484 0.5595 5.66032 3.28435 2.9947 7.52819C-0.784716 13.5453 -0.0793372 21.4924 4.69892 26.7274C7.34332 29.6246 10.6505 31.3567 14.6165 31.9217C15.3569 32.0271 17.8175 32.0258 18.5905 31.9195C22.2127 31.4215 25.4566 29.815 27.9238 27.2975C28.7335 26.4712 28.906 26.2736 29.4431 25.5573C31.0435 23.4227 32.0914 20.8205 32.4957 17.9765C32.6004 17.2396 32.6004 14.7677 32.4956 14.0312C32.2259 12.1353 31.7355 10.5199 30.9487 8.93564C30.115 7.25709 29.2596 6.06043 27.928 4.71021C25.4579 2.20548 22.3651 0.649552 18.8096 0.122767C18.0418 0.00898108 15.8199 -0.0406163 15.0552 0.0388523ZM19.998 7.15834C20.1351 8.22305 20.4729 9.04911 21.0618 9.76007C21.8283 10.6855 22.9646 11.2821 24.2024 11.4091L24.5985 11.4496V12.9298V14.41L24.008 14.3667C23.6832 14.343 23.2591 14.2907 23.0657 14.2505C22.2125 14.0732 21.1231 13.6103 20.3932 13.1147C20.1972 12.9816 20.0232 12.8727 20.0067 12.8727C19.9901 12.8727 19.9815 14.5283 19.9876 16.5518C19.9985 20.1944 19.9972 20.2365 19.8558 20.7945C19.3377 22.8391 17.7695 24.4288 15.743 24.9639C14.9915 25.1623 13.901 25.1925 13.1451 25.0358C10.8865 24.5676 9.1349 22.8444 8.67009 20.6334C8.54893 20.0573 8.55149 18.943 8.67522 18.3339C8.78355 17.8009 9.08083 17.0596 9.40132 16.5231C9.67593 16.0634 10.4429 15.2487 10.9191 14.9107C12.009 14.1372 13.4888 13.7206 14.7103 13.8433L15.1484 13.8874V15.4102V16.9331L14.9152 16.8687C14.787 16.8332 14.4279 16.8159 14.1173 16.8302C13.4016 16.8631 12.864 17.1 12.3735 17.5987C10.8149 19.1835 11.7019 21.8179 13.9093 22.1599C15.3508 22.3831 16.7536 21.3238 16.9614 19.8551C16.999 19.5896 17.0239 16.9422 17.0247 13.1388L17.0259 6.86088H18.4928H19.9597L19.998 7.15834Z" fill="white"/>
</svg>
