<svg width="33" height="32" viewBox="0 0 33 32" fill="none" xmlns="http://www.w3.org/2000/svg">
<path fill-rule="evenodd" clip-rule="evenodd" d="M15.3731 0.0301123C13.0509 0.252473 11.2857 0.746093 9.35662 1.7127C6.81777 2.98477 4.46362 5.14297 2.91533 7.61795C1.79753 9.40465 0.982041 11.7149 0.652754 14.0274C0.54804 14.7628 0.54804 17.2314 0.652754 17.9668C0.915007 19.8087 1.40227 21.4221 2.16356 22.9693C3.02486 24.7198 3.86852 25.8958 5.26134 27.2874C6.63895 28.6637 7.83442 29.5231 9.52092 30.3496C10.6977 30.9263 11.4575 31.2071 12.6504 31.506C15.7808 32.2905 18.9204 32.14 21.9788 31.0591C22.9059 30.7315 24.5242 29.9212 25.3562 29.3681C27.6407 27.8494 29.5286 25.7525 30.7786 23.3453C31.9095 21.1674 32.4754 19.0065 32.5637 16.5286C32.6587 13.8617 32.1098 11.3236 30.9221 8.93779C30.1423 7.3712 29.2741 6.1434 28.0551 4.88321C26.7033 3.48564 25.3774 2.52141 23.6037 1.64585C21.7497 0.730711 20.0223 0.242218 17.9706 0.0528111C17.3329 -0.00603069 15.8833 -0.0187245 15.3731 0.0301123ZM20.8039 8.84793L20.8206 10.4219L19.6772 10.4425C17.9485 10.4737 17.9393 10.4831 17.9393 12.212V13.3083H19.4102C20.2192 13.3083 20.881 13.3167 20.881 13.3269C20.881 13.3372 20.8106 14.0154 20.7246 14.8341C20.6385 15.6528 20.5681 16.376 20.5681 16.4413C20.5681 16.554 20.5027 16.5599 19.2537 16.5599H17.9393V21.1872V25.8145H15.999H14.0587V21.1872V16.5599H13.1511H12.2436V14.9341V13.3083H13.1439H14.0442L14.0747 11.8544C14.1094 10.2085 14.1744 9.85587 14.5887 9.06836C15.1036 8.08937 16.0469 7.46844 17.2609 7.30954C17.4791 7.28097 18.3618 7.26127 19.2224 7.26577L20.7872 7.27403L20.8039 8.84793Z" fill="white"/>
</svg>
