<svg width="35" height="35" viewBox="0 0 35 35" fill="none" xmlns="http://www.w3.org/2000/svg">
<path d="M22.606 24.4423C22.8639 24.6992 23.1647 24.8276 23.5086 24.8276C23.8524 24.8276 24.1676 24.6849 24.4541 24.3995C24.7406 24.1141 24.891 23.786 24.9053 23.415C24.9197 23.044 24.7836 22.7301 24.497 22.4732L18.6092 16.6088V9.24613C18.6092 8.90368 18.4874 8.61117 18.2439 8.36861C18.0003 8.12604 17.6923 8.00475 17.3198 8.00475C16.9474 8.00475 16.6394 8.12604 16.3958 8.36861C16.1523 8.61117 16.0305 8.91795 16.0305 9.28894V17.1225C16.0305 17.2937 16.0592 17.4506 16.1165 17.5933C16.1738 17.736 16.2597 17.8787 16.3743 18.0214L22.606 24.4423ZM17.1909 34.2449C14.8415 34.2449 12.621 33.7955 10.5294 32.8965C8.43787 31.9976 6.61134 30.7705 5.04983 29.2152C3.48832 27.6599 2.25631 25.8407 1.35378 23.7574C0.451261 21.6742 0 19.4625 0 17.1225C0 14.7824 0.451261 12.5707 1.35378 10.4875C2.25631 8.40428 3.48832 6.58502 5.04983 5.02973C6.61134 3.47443 8.43787 2.24732 10.5294 1.34839C12.621 0.449465 14.8415 0 17.1909 0C19.5403 0 21.7608 0.449465 23.8524 1.34839C25.9439 2.24732 27.7705 3.47443 29.332 5.02973C30.8935 6.58502 32.1255 8.40428 33.028 10.4875C33.9306 12.5707 34.3818 14.7824 34.3818 17.1225C34.3818 19.4625 33.9306 21.6742 33.028 23.7574C32.1255 25.8407 30.8935 27.6599 29.332 29.2152C27.7705 30.7705 25.9439 31.9976 23.8524 32.8965C21.7608 33.7955 19.5403 34.2449 17.1909 34.2449ZM17.1909 31.6766C21.2021 31.6766 24.6403 30.2497 27.5055 27.396C30.3706 24.5422 31.8032 21.1177 31.8032 17.1225C31.8032 13.1272 30.3706 9.70273 27.5055 6.84899C24.6403 3.99524 21.2021 2.56837 17.1909 2.56837C13.1797 2.56837 9.74151 3.99524 6.87636 6.84899C4.01121 9.70273 2.57864 13.1272 2.57864 17.1225C2.57864 21.1177 4.01121 24.5422 6.87636 27.396C9.74151 30.2497 13.1797 31.6766 17.1909 31.6766Z" fill="#979797"/>
</svg>
