<svg width="18" height="32" viewBox="0 0 18 32" fill="none" xmlns="http://www.w3.org/2000/svg">
<path d="M13.4375 0C14.3938 0 15.4062 0.0375 17.2812 0.20625L17.3125 5.3H15.6375C14.7188 5.3 13.7563 5.33125 13.5 5.36875C13.2437 5.4 12.8688 5.50625 12.6625 5.6C12.4625 5.69375 12.1938 5.88125 12.0625 6.01875C11.9375 6.15625 11.7688 6.4375 11.6875 6.64375C11.5375 7.0125 11.5312 7.05 11.5 11.675H14.2812C15.8125 11.675 17.075 11.6937 17.0812 11.7187C17.0938 11.75 16.9438 13.0187 16.7437 14.55C16.5437 16.0812 16.3813 17.3375 16.375 17.35C16.375 17.3562 15.275 17.3625 11.5 17.3625V31.9875H5.625L5.59375 17.3937L0.6875 17.3625V11.675H5.625L5.65 8.88125C5.66875 6.3375 5.68125 6.025 5.8 5.4875C5.86875 5.1625 6 4.68125 6.09375 4.425C6.1875 4.16875 6.35 3.7875 6.45625 3.58125C6.55625 3.375 6.74375 3.05 6.86875 2.8625C6.99375 2.675 7.29375 2.3125 7.53125 2.05625C7.775 1.80625 8.1375 1.48125 8.34375 1.3375C8.55 1.19375 8.84375 1 9 0.9125C9.15625 0.825 9.49375 0.66875 9.75 0.5625C10.0063 0.4625 10.475 0.31875 10.7812 0.25C11.0875 0.18125 11.4688 0.09375 11.625 0.0625C11.7812 0.03125 12.5938 0 13.4375 0Z" fill="white"/>
</svg>
