<svg xmlns="http://www.w3.org/2000/svg" width="40" height="40" viewBox="0 0 40 40" fill="none">
<path d="M6 19.924C6 19.7586 6.08184 19.6039 6.2186 19.5107L8.85082 17.7186C8.94723 17.653 9.01766 17.5557 9.04992 17.4436L9.94617 14.3295C9.98079 14.2092 10.0593 14.1063 10.1661 14.0411L10.88 13.6052C10.9585 13.5573 11.0486 13.5319 11.1406 13.5319H13.7898C13.9242 13.5319 14.053 13.4778 14.1471 13.3817L14.9021 12.6107C14.9661 12.5452 15.0469 12.4987 15.1356 12.476L17 12V14.3064C17 14.4619 16.9276 14.6087 16.804 14.7033L15.0361 16.0574C15.0121 16.0758 14.9864 16.092 14.9595 16.1058L14.1883 16.4996C14.0679 16.5611 13.9278 16.5712 13.7998 16.5276L12.7002 16.1533C12.5722 16.1097 12.4321 16.1198 12.3117 16.1813L11.669 16.5095C11.5601 16.565 11.4754 16.6586 11.4308 16.7724L10.5692 18.9723C10.5246 19.0861 10.4399 19.1796 10.331 19.2352L8.77261 20.031C8.6053 20.1164 8.5 20.2884 8.5 20.4763V21.7021H17.5623C17.8129 21.7021 18.0248 21.8876 18.0579 22.136L19.4421 32.5023C19.4752 32.7507 19.6871 32.9362 19.9377 32.9362H22H24.0558H27H28.92H30H31H36L35.5544 34.7564C35.5199 34.8976 35.4256 35.0167 35.2962 35.0828L33.6071 35.9453C33.5367 35.9813 33.4588 36 33.3797 36H6.15406C6.05368 36 5.95563 35.9698 5.87266 35.9133L4.65863 35.0867C4.55651 35.0172 4.48374 34.9123 4.45437 34.7923L4 32.9362H10.9644C11.2652 32.9362 11.3191 32.507 11.0276 32.4326C11.0093 32.4279 10.9915 32.4212 10.9746 32.4126L10.091 31.9613C9.36844 31.5924 8.71056 31.1087 8.14297 30.529L7.80957 30.1885C6.94971 29.3103 6.31884 28.2343 5.97244 27.0551L5 23.7447H4.6C4.26863 23.7447 4 23.4761 4 23.1447V22.3021C4 21.9708 4.26863 21.7021 4.6 21.7021H6V19.924Z" fill="white"/>
<rect x="21" y="6" width="2" height="4" rx="1" fill="white"/>
<rect x="25" y="4" width="2" height="6" rx="1" fill="white"/>
<rect x="29" y="6" width="2" height="4" rx="1" fill="white"/>
<path d="M19.1133 13.1022C19.0527 12.5126 19.5153 12 20.108 12H26.5H32.8889C33.4827 12 33.9457 12.5144 33.8834 13.105L32.0185 30.7759C32.0063 30.8919 31.9738 31.0048 31.9227 31.1096L31.274 32.4386C31.1063 32.7821 30.7576 33 30.3753 33H22.5423C22.204 33 21.8887 32.829 21.7042 32.5455L21.1319 31.6661C21.0452 31.5329 20.9915 31.381 20.9753 31.2229L19.1133 13.1022Z" fill="white"/>
</svg>