<svg width="32" height="32" viewBox="0 0 32 32" fill="none" xmlns="http://www.w3.org/2000/svg">
<g id="gift-solid 2" clip-path="url(#clip0_7119_15627)">
<path id="Vector" d="M11.9062 4.3L14.0813 8H14H9.5C8.11875 8 7 6.88125 7 5.5C7 4.11875 8.11875 3 9.5 3H9.6375C10.5687 3 11.4375 3.49375 11.9062 4.3ZM4 5.5C4 6.4 4.21875 7.25 4.6 8H2C0.89375 8 0 8.22708 0 9.33333V12.6667C0 13.7729 0.89375 14.6667 2 14.6667H30C31.1063 14.6667 32 13.7729 32 12.6667V9.33333C32 8.22708 31.1063 8 30 8H27.4C27.7812 7.25 28 6.4 28 5.5C28 2.4625 25.5375 0 22.5 0H22.3625C20.3687 0 18.5188 1.05625 17.5063 2.775L16 5.34375L14.4937 2.78125C13.4812 1.05625 11.6312 0 9.6375 0H9.5C6.4625 0 4 2.4625 4 5.5ZM25 5.5C25 6.88125 23.8813 8 22.5 8H18H17.9188L20.0938 4.3C20.5688 3.49375 21.4312 3 22.3625 3H22.5C23.8813 3 25 4.11875 25 5.5ZM2.66667 17.3333V29C2.66667 30.6562 3.34375 32 5 32H14.6667V17.3333H2.66667ZM17.3333 32H27C28.6562 32 29.3333 30.6562 29.3333 29V17.3333H17.3333V32Z" fill="white"/>
</g>
<defs>
<clipPath id="clip0_7119_15627">
<rect width="32" height="32" fill="white"/>
</clipPath>
</defs>
</svg>
