<svg width="62" height="59" viewBox="0 0 62 59" fill="none" xmlns="http://www.w3.org/2000/svg">
<path d="M26.699 34.4781C26.699 34.1831 26.699 33.8881 26.699 33.5931C26.699 29.0206 26.699 24.4481 26.699 19.8879C26.699 18.3269 27.8492 17.0977 29.342 17.0117C30.9449 16.9256 32.2909 18.1671 32.3154 19.7896C32.3398 20.9819 32.3276 22.1742 32.3154 23.3542C32.3154 23.6369 32.3643 23.7475 32.6947 23.7721C34.2976 23.9073 35.6436 25.0873 35.9739 26.6729C36.0474 26.9925 36.1697 27.1031 36.4879 27.1277C38.1153 27.2998 39.3389 28.3937 39.7304 30.004C39.7916 30.2498 39.865 30.3235 40.122 30.3481C42.1776 30.5325 43.5725 32.069 43.5848 34.134C43.5848 36.7152 43.5848 39.2965 43.5848 41.8777C43.5848 43.8075 43.3645 45.725 42.6426 47.5319C41.884 49.4125 40.7215 50.8875 38.7026 51.5144C38.1275 51.6865 37.5402 51.7602 36.9528 51.7602C35.0073 51.7602 33.0495 51.7233 31.104 51.7602C29.6112 51.7971 28.4488 51.1948 27.4821 50.1254C26.748 49.3265 26.2218 48.38 25.7324 47.4212C23.9337 43.9181 22.2696 40.3535 20.581 36.8012C20.2996 36.199 19.8958 35.6827 19.5777 35.1173C19.1372 34.3552 18.7334 33.5808 18.5865 32.7081C18.3296 31.0979 19.2595 29.9425 20.8991 29.8687C22.8692 29.7827 24.3864 30.594 25.4265 32.241C25.8792 32.9662 26.2585 33.7283 26.6746 34.4781H26.748H26.699ZM28.5711 27.5825C28.5711 30.0777 28.5711 32.5606 28.5711 35.0558C28.5711 36.1375 28.045 36.8504 27.1151 37.0717C26.2585 37.2683 25.7324 36.9487 25.2062 35.9162C24.7657 35.0681 24.3497 34.2077 23.8725 33.3842C23.2362 32.2902 22.2696 31.7002 20.9726 31.7617C20.4219 31.7862 20.3118 31.9337 20.4097 32.4746C20.5565 33.2244 20.9359 33.8758 21.3519 34.5027C21.7067 35.0558 22.0371 35.6212 22.3185 36.2112C23.9826 39.6775 25.5856 43.1683 27.3475 46.5854C27.8247 47.5073 28.3142 48.4046 29.0728 49.1421C29.599 49.646 30.1985 49.9165 30.9694 49.9165C32.8905 49.8919 34.8115 49.8796 36.7326 49.9165C38.5068 49.9533 39.7426 49.1421 40.5502 47.6056C41.1987 46.3765 41.5046 45.049 41.6025 43.6846C41.835 40.4519 41.6759 37.2069 41.7004 33.9619C41.7004 33.1383 41.0764 32.4623 40.2688 32.2656C39.9507 32.1919 39.8283 32.241 39.8405 32.6098C39.865 33.6792 39.865 34.7362 39.8405 35.8056C39.8405 36.3465 39.4245 36.7275 38.9228 36.7398C38.4212 36.7398 38.0174 36.3587 37.9807 35.8302C37.9807 35.7073 37.9807 35.5844 37.9807 35.4492C37.9807 33.925 37.9807 32.4131 37.9807 30.889C37.9807 30.09 37.6013 29.5123 36.9039 29.1558C36.2431 28.824 36.1208 28.91 36.1208 29.6352C36.1208 31.0242 36.1208 32.4254 36.1208 33.8144C36.1208 34.429 35.7415 34.8346 35.2031 34.8469C34.6525 34.8469 34.2609 34.429 34.2487 33.8021C34.2487 33.6669 34.2487 33.5194 34.2487 33.3842C34.2487 31.4421 34.2487 29.5 34.2487 27.5579C34.2487 26.636 33.6858 25.8985 32.8415 25.6773C32.5356 25.5912 32.3643 25.6158 32.3766 26.0215C32.401 27.7423 32.3766 29.4631 32.3766 31.184C32.3766 31.4667 32.3766 31.7494 32.3766 32.0321C32.3521 32.5729 31.9483 32.954 31.4466 32.9662C30.9449 32.9662 30.5411 32.5852 30.5044 32.0444C30.5044 31.9092 30.5044 31.7617 30.5044 31.6265C30.5044 27.8283 30.5044 24.0179 30.5044 20.2198C30.5044 20.0846 30.5044 19.9371 30.5044 19.8019C30.4677 19.2733 30.0639 18.88 29.5623 18.8923C29.0728 18.8923 28.6935 19.2733 28.6446 19.7896C28.6446 19.9248 28.6446 20.0723 28.6446 20.2075C28.6446 22.6658 28.6446 25.1242 28.6446 27.5825H28.5711Z" fill="#979797"/>
<path d="M20.8623 10.2512C21.1805 10.2635 21.413 10.3864 21.6087 10.5831C23.1138 12.0827 24.6188 13.5946 26.1116 15.1064C26.5643 15.5612 26.5766 16.1389 26.1728 16.52C25.7812 16.8887 25.2306 16.8764 24.7901 16.4339C23.2851 14.9343 21.78 13.4225 20.2872 11.9229C19.9691 11.6033 19.8467 11.2346 20.0425 10.8166C20.2138 10.4602 20.5075 10.2881 20.8501 10.2635L20.8623 10.2512Z" fill="#979797"/>
<path d="M33.3921 16.7781C32.7803 16.7781 32.3275 16.0284 32.6579 15.4015C32.7069 15.3031 32.7803 15.2171 32.8537 15.1434C34.371 13.6192 35.9005 12.0827 37.43 10.5586C37.8582 10.1406 38.3844 10.1529 38.7637 10.5217C39.143 10.9027 39.1675 11.4436 38.7637 11.8615C37.2342 13.4102 35.7047 14.9467 34.1629 16.4831C33.9794 16.6675 33.7469 16.7659 33.4043 16.7659L33.3921 16.7781Z" fill="#979797"/>
<path d="M30.4434 10.9027C30.4434 11.9475 30.4434 12.9923 30.4434 14.0371C30.4434 14.7008 30.0518 15.1311 29.489 15.1188C28.9383 15.1065 28.5835 14.6886 28.5835 14.0371C28.5835 11.9475 28.5835 9.84564 28.5835 7.75606C28.5835 7.09231 28.975 6.6621 29.5379 6.67439C30.0885 6.68668 30.4434 7.1046 30.4556 7.75606C30.4556 8.80085 30.4556 9.84564 30.4556 10.8904L30.4434 10.9027Z" fill="#979797"/>
<path d="M20.6054 18.8923C21.6455 18.8923 22.6978 18.8923 23.7379 18.8923C24.3986 18.8923 24.8391 19.2856 24.8269 19.851C24.8146 20.4041 24.3986 20.7729 23.7501 20.7729C21.6577 20.7729 19.5776 20.7729 17.4853 20.7729C16.8245 20.7729 16.384 20.3796 16.3962 19.8141C16.3962 19.261 16.8245 18.9046 17.473 18.8923C18.5131 18.8923 19.5654 18.8923 20.6054 18.8923Z" fill="#979797"/>
<path d="M38.4089 20.7729C37.3689 20.7729 36.3166 20.7729 35.2765 20.7729C34.6158 20.7729 34.1753 20.3796 34.1875 19.8141C34.1997 19.261 34.6158 18.9046 35.2643 18.8923C37.3566 18.8923 39.4368 18.8923 41.5291 18.8923C42.1899 18.8923 42.6304 19.2856 42.6181 19.851C42.6059 20.4041 42.1899 20.7606 41.5414 20.7729C40.5013 20.7729 39.449 20.7729 38.4089 20.7729Z" fill="#979797"/>
</svg>
