<svg width="32" height="32" viewBox="0 0 32 32" fill="none" xmlns="http://www.w3.org/2000/svg">
<path fill-rule="evenodd" clip-rule="evenodd" d="M16.3125 0.0312893C20.1813 0.0375393 22.5688 0.0687893 23.0938 0.118789C23.5375 0.156289 24.2313 0.243789 24.625 0.312539C25.0188 0.387539 25.6688 0.550039 26.0625 0.681289C26.4563 0.812539 26.9938 1.02504 27.25 1.15629C27.5063 1.28754 27.9313 1.53754 28.1875 1.70629C28.4438 1.88129 28.9188 2.28129 29.2438 2.58754C29.5688 2.90004 29.9875 3.36879 30.1813 3.62504C30.3688 3.88129 30.6563 4.34379 30.8188 4.65629C30.9813 4.96879 31.2125 5.50004 31.3313 5.84379C31.45 6.18754 31.6063 6.73754 31.675 7.06254C31.7438 7.38754 31.8438 7.95004 31.8876 8.31254C31.9501 8.81879 31.9688 10.5438 31.9688 15.9375C31.9688 21.2563 31.9501 23.0688 31.8876 23.5938C31.8438 23.975 31.7375 24.6063 31.65 25C31.5625 25.3938 31.3813 26.0125 31.2438 26.375C31.1063 26.7375 30.8688 27.2563 30.7125 27.5313C30.55 27.8063 30.275 28.225 30.0938 28.4688C29.9125 28.7125 29.5125 29.1438 29.2063 29.4375C28.9063 29.7313 28.4188 30.1313 28.125 30.325C27.8313 30.5188 27.425 30.7563 27.2188 30.8625C27.0126 30.9625 26.5875 31.1375 26.2813 31.25C25.975 31.3563 25.4938 31.5 25.2188 31.5625C24.9438 31.6313 24.5375 31.7125 24.3125 31.7438C24.0875 31.7813 23.3563 31.85 22.6875 31.9063C21.725 31.9813 20.3251 32 16.0625 32C11.9438 32 10.375 31.975 9.4688 31.9063C8.8188 31.8563 8.0688 31.7875 7.81255 31.75C7.5563 31.7125 7.02505 31.5938 6.6438 31.4938C6.2563 31.3938 5.6938 31.2063 5.3938 31.075C5.08755 30.95 4.62505 30.7188 4.35005 30.5625C4.0813 30.4063 3.60005 30.0688 3.28755 29.8063C2.97505 29.55 2.5313 29.1125 2.3063 28.8375C2.0813 28.5688 1.81255 28.2188 1.7063 28.0625C1.60005 27.9063 1.40005 27.5563 1.26255 27.2813C1.12505 27.0063 0.925049 26.5563 0.825049 26.2813C0.725049 26.0063 0.581299 25.525 0.506299 25.2188C0.425049 24.9125 0.325049 24.375 0.281299 24.0313C0.231299 23.6875 0.162549 22.7 0.118799 21.8438C0.0812988 20.9813 0.0500488 18.3688 0.0500488 16.0313C0.0500488 13.6938 0.0812988 11.075 0.118799 10.2188C0.162549 9.35629 0.237549 8.35004 0.287549 7.96879C0.337549 7.59379 0.450049 7.01254 0.537549 6.68754C0.618799 6.36254 0.762549 5.89379 0.856299 5.65629C0.943799 5.41879 1.1438 4.96879 1.3063 4.65629C1.46255 4.34379 1.75005 3.88129 1.9438 3.62504C2.1313 3.36879 2.51255 2.93754 2.78755 2.66254C3.0563 2.39379 3.45005 2.05004 3.6563 1.89379C3.86255 1.73754 4.21255 1.51254 4.43755 1.38754C4.66255 1.26254 5.08755 1.05629 5.3938 0.925039C5.6938 0.793789 6.2563 0.606289 6.63755 0.506289C7.02505 0.400039 7.5688 0.287539 7.8438 0.243789C8.1188 0.206289 8.7938 0.137539 9.3438 0.0937893C10.0813 0.0375393 11.9188 0.0187893 16.3125 0.0312893ZM8.12505 3.15004C7.80005 3.20629 7.26255 3.34379 6.93755 3.45629C6.61255 3.56879 6.12505 3.78129 5.85005 3.93754C5.5688 4.10004 5.1563 4.41879 4.87505 4.68754C4.6063 4.94379 4.26255 5.35629 4.11255 5.59379C3.9563 5.83129 3.7438 6.24379 3.63755 6.50004C3.53755 6.75629 3.40005 7.15004 3.3438 7.37504C3.28755 7.60004 3.20005 8.07504 3.15005 8.43754C3.1063 8.80004 3.0313 10.1938 2.9938 11.5313C2.95005 13.0313 2.93755 15.45 2.96255 17.8125C2.9813 19.925 3.0313 22.0938 3.06255 22.625C3.10005 23.1563 3.18755 23.875 3.2563 24.2188C3.32505 24.5625 3.47505 25.0813 3.5813 25.375C3.6938 25.6688 3.8813 26.075 4.00005 26.275C4.1188 26.475 4.4188 26.85 4.6563 27.1125C4.8938 27.3688 5.25005 27.6938 5.43755 27.8375C5.62505 27.975 6.0188 28.2 6.31255 28.3313C6.6063 28.4688 7.0938 28.6438 7.4063 28.7188C7.7188 28.8 8.18755 28.8938 8.45005 28.9313C8.7188 28.9688 9.7188 29.0313 10.6688 29.0688C11.775 29.1125 14.2 29.125 17.3438 29.1063C20.1438 29.0875 22.6063 29.0438 23.0313 29C23.4438 28.9625 24.0751 28.8688 24.4375 28.7875C24.8 28.7063 25.3188 28.5438 25.5938 28.4313C25.8688 28.3188 26.2875 28.0938 26.5313 27.9313C26.775 27.7688 27.1813 27.4188 27.4375 27.1438C27.6938 26.8688 28.0125 26.4625 28.1438 26.2438C28.2688 26.025 28.4563 25.6313 28.5563 25.375C28.6563 25.1188 28.8 24.625 28.8688 24.2813C28.9375 23.9375 29.0313 23.2313 29.0751 22.7188C29.1313 22.05 29.1563 20.125 29.1563 16.0313C29.1563 11.8688 29.1313 10.0125 29.0751 9.31254C29.0313 8.78129 28.95 8.11879 28.8938 7.84379C28.8438 7.56879 28.7063 7.07504 28.5875 6.75004C28.4688 6.42504 28.2563 5.95629 28.1125 5.71879C27.9688 5.46879 27.625 5.05004 27.3188 4.74379C27.025 4.45004 26.6125 4.11254 26.4063 3.99379C26.2001 3.87504 25.8188 3.68754 25.5625 3.58129C25.3063 3.47504 24.9 3.34379 24.6563 3.28129C24.4125 3.22504 23.925 3.13129 23.5625 3.08129C23.0126 3.00004 21.9125 2.98129 16.6563 2.96879C13.2188 2.95629 10.025 2.97504 9.56255 3.00004C9.10005 3.03129 8.45005 3.10004 8.12505 3.15004ZM24.5625 5.56254C24.7875 5.56254 25.1125 5.60629 25.2813 5.66879C25.4938 5.73754 25.7001 5.88129 25.9438 6.11879C26.2001 6.37504 26.3188 6.55629 26.4063 6.81254C26.4875 7.06254 26.5063 7.27504 26.4875 7.59379C26.4688 7.86879 26.4063 8.13129 26.3251 8.29379C26.25 8.44379 26.0938 8.66254 25.9813 8.78754C25.875 8.91254 25.625 9.08754 25.4375 9.17504C25.1563 9.31254 25.0063 9.34379 24.5938 9.34379C24.2063 9.34379 24.0313 9.31254 23.8125 9.20629C23.6563 9.13129 23.4125 8.95004 23.2626 8.80004C23.1126 8.65004 22.9313 8.40629 22.8563 8.25004C22.75 8.03129 22.7188 7.85629 22.7188 7.46879C22.7188 7.10004 22.7563 6.89379 22.85 6.68754C22.9188 6.53129 23.0751 6.30004 23.1938 6.16879C23.3125 6.03129 23.5751 5.84379 23.7813 5.74379C24.0751 5.60004 24.2375 5.56254 24.5625 5.56254ZM16 7.81879C16.5688 7.81254 17.1188 7.85004 17.4688 7.90629C17.775 7.96254 18.3251 8.10629 18.6875 8.22504C19.05 8.34379 19.5813 8.56879 19.875 8.72504C20.1688 8.88129 20.625 9.16879 20.9 9.36254C21.1688 9.55629 21.6438 9.98754 21.9625 10.3125C22.275 10.6375 22.6938 11.1438 22.8876 11.4375C23.0813 11.7313 23.3251 12.15 23.4375 12.375C23.55 12.6 23.7313 13.0625 23.85 13.4063C23.9625 13.75 24.1 14.2875 24.1563 14.5938C24.2125 14.9125 24.25 15.5188 24.25 16C24.25 16.4813 24.2125 17.0875 24.1563 17.4063C24.1 17.7125 23.9563 18.2625 23.8375 18.625C23.7188 18.9875 23.4938 19.5188 23.3375 19.8125C23.1813 20.1063 22.8938 20.5625 22.7001 20.8375C22.5063 21.1063 22.0751 21.5813 21.75 21.9C21.425 22.2188 20.9438 22.6188 20.6875 22.7938C20.4313 22.9625 20.05 23.1938 19.8438 23.2938C19.6376 23.4 19.2875 23.5625 19.0625 23.65C18.8375 23.7438 18.375 23.8875 18.0313 23.9688C17.6875 24.0563 17.1125 24.15 16.75 24.1813C16.375 24.2125 15.8125 24.2125 15.4375 24.1875C15.075 24.1563 14.5688 24.0875 14.3125 24.0313C14.0563 23.975 13.6313 23.8563 13.375 23.7688C13.1188 23.6813 12.6813 23.4938 12.4063 23.3563C12.1313 23.2188 11.7063 22.975 11.4688 22.8125C11.2313 22.65 10.8438 22.35 10.6188 22.15C10.3938 21.9438 10.0563 21.6125 9.87505 21.4063C9.6938 21.2 9.41255 20.8375 9.25005 20.5938C9.08755 20.35 8.83755 19.925 8.6938 19.6375C8.5563 19.3563 8.36255 18.9063 8.27505 18.6375C8.18755 18.375 8.0563 17.875 7.98755 17.5313C7.90005 17.0813 7.8688 16.65 7.8688 16C7.8688 15.35 7.90005 14.9188 7.98755 14.4688C8.0563 14.125 8.17505 13.6625 8.25005 13.4375C8.32505 13.2125 8.48755 12.8063 8.6188 12.5313C8.7438 12.2563 9.01255 11.775 9.21255 11.4688C9.4438 11.1125 9.8313 10.65 10.275 10.2125C10.7 9.78754 11.175 9.38129 11.5 9.16879C11.7938 8.98129 12.2125 8.73754 12.4375 8.62504C12.6625 8.51254 13.125 8.32504 13.4688 8.21254C13.8125 8.10004 14.3188 7.96254 14.5938 7.91254C14.8688 7.86254 15.5 7.81879 16 7.81879ZM14.0938 11.0625C13.8188 11.1688 13.3938 11.3875 13.1563 11.55C12.9188 11.7063 12.5813 11.9625 12.4125 12.1188C12.2438 12.275 11.9875 12.5625 11.8438 12.75C11.7 12.9375 11.4813 13.275 11.3563 13.5C11.2375 13.725 11.0625 14.1438 10.9688 14.4375C10.8313 14.8563 10.7938 15.1375 10.7625 15.75C10.7438 16.325 10.7625 16.6625 10.8313 17.0313C10.8875 17.3063 11.0063 17.7125 11.0938 17.9375C11.1813 18.1625 11.3625 18.525 11.4938 18.75C11.625 18.975 11.9 19.3375 12.1 19.5563C12.3063 19.775 12.625 20.075 12.8125 20.2188C13 20.3625 13.3375 20.5813 13.5625 20.7063C13.7875 20.825 14.2063 21 14.5 21.0938C14.9313 21.2313 15.1875 21.2688 15.8438 21.2938C16.425 21.3188 16.7813 21.3 17.0938 21.2313C17.3375 21.1813 17.7563 21.05 18.0313 20.9438C18.3063 20.8375 18.7125 20.6313 18.9375 20.4875C19.1625 20.3375 19.525 20.05 19.7438 19.8438C19.9625 19.6375 20.3 19.2313 20.4875 18.9375C20.6813 18.6438 20.925 18.1938 21.0188 17.9375C21.1188 17.6813 21.2376 17.2625 21.2875 17.0125C21.3375 16.7688 21.375 16.3063 21.375 16C21.375 15.6938 21.3375 15.2313 21.2875 14.9813C21.2438 14.7375 21.1125 14.3063 21 14.0313C20.8938 13.7563 20.6563 13.3063 20.4688 13.0313C20.2875 12.7563 19.9625 12.3625 19.7438 12.1563C19.525 11.95 19.1313 11.65 18.875 11.4875C18.6188 11.325 18.2125 11.1188 17.9688 11.0313C17.725 10.9375 17.3251 10.825 17.0751 10.775C16.8313 10.725 16.35 10.6875 16.0125 10.6938C15.6813 10.6938 15.225 10.7375 15 10.7813C14.775 10.825 14.3688 10.95 14.0938 11.0625Z" fill="white"/>
</svg>
