<svg width="28" height="32" viewBox="0 0 28 32" fill="none" xmlns="http://www.w3.org/2000/svg">
<path fill-rule="evenodd" clip-rule="evenodd" d="M8.88231 0.105414C4.88481 0.913705 2.1692 4.95906 2.76209 9.22234C3.10054 11.6554 4.40517 13.7779 6.34971 15.0589C7.55625 15.8538 8.76669 16.2236 10.1617 16.2236C11.3362 16.2235 22.2623 15.4698 22.8202 15.3504C25.5351 14.769 27.2347 12.8136 27.3883 10.0946C27.4924 8.25241 26.8522 6.52748 25.6146 5.3152C24.9536 4.66778 24.4231 4.33975 23.5275 4.02489C22.9215 3.81179 22.7678 3.78897 21.9378 3.78897C21.1077 3.78897 20.9541 3.81179 20.3481 4.02489C19.4203 4.35108 18.9093 4.67307 18.1643 5.40088C17.8126 5.74453 17.5116 5.98574 17.4953 5.93688C17.4792 5.88811 17.3779 5.5796 17.2701 5.25141C16.8883 4.08752 16.3092 3.13176 15.4347 2.22178C14.3411 1.08377 12.9602 0.337886 11.4525 0.0708806C10.8438 -0.0369323 9.49695 -0.0188614 8.88231 0.105414ZM12.5689 3.8928C14.4867 4.48554 15.6634 6.64839 15.2799 8.87593C15.0951 9.94863 14.69 10.7394 13.9443 11.4825C13.0724 12.3514 12.2271 12.6898 11.1531 12.5998C10.0255 12.5053 8.92466 11.722 8.33284 10.5931C7.94224 9.84816 7.79109 9.21231 7.78726 8.29843C7.77501 5.33235 10.149 3.14493 12.5689 3.8928ZM23.7536 6.7451C24.7856 7.18316 25.5095 8.70817 25.2909 9.98415C25.0512 11.3833 24.0723 12.421 22.8912 12.5281C21.5054 12.6538 20.3008 11.3124 20.2933 9.63537C20.2869 8.16711 21.2598 6.82029 22.5092 6.56806C22.87 6.49517 23.3135 6.55826 23.7536 6.7451ZM16.1744 17.1035C13.8468 17.3252 11.8316 17.5289 11.6962 17.5559C11.3086 17.6335 10.9206 17.9354 10.718 18.3174L10.5318 18.6684L12.5679 20.7194C13.6878 21.8475 14.6691 22.8911 14.7485 23.0385C14.8711 23.2658 14.8969 23.5108 14.9183 24.6541C14.9331 25.4445 14.9102 26.1259 14.8628 26.3017C14.8146 26.4807 14.3952 27.1253 13.823 27.8998C13.2956 28.6138 12.864 29.2199 12.864 29.2467C12.864 29.3023 14.5081 29.9493 14.9698 30.0753C15.1382 30.1212 15.5901 30.1589 15.9739 30.1592C16.5943 30.1596 17.1372 30.053 20.866 29.1986C23.1728 28.67 25.1887 28.1721 25.3457 28.092C25.786 27.8673 26.0838 27.584 26.2581 27.224C26.4101 26.91 26.4172 26.7729 26.4172 24.1674C26.4172 22.667 26.3914 21.4236 26.3598 21.4041C26.3282 21.3846 25.0966 21.6056 23.6229 21.8952C21.6055 22.2916 20.9196 22.4542 20.8472 22.5532C20.6985 22.7565 20.712 25.208 20.8625 25.3329C20.9509 25.4063 21.1561 25.3831 21.8544 25.2207C22.3386 25.1081 22.7708 25.0382 22.8148 25.0655C22.8998 25.1179 22.9259 25.8549 22.8499 26.0531C22.794 26.1987 22.5729 26.2682 21.361 26.5208C20.5118 26.6979 20.3675 26.7095 20.105 26.6217C19.9419 26.5671 19.7362 26.4253 19.648 26.3065C19.4978 26.1045 19.4859 25.9767 19.4631 24.3295C19.4317 22.0543 19.541 21.5479 20.1297 21.2436C20.2446 21.1841 21.6288 20.8902 23.2057 20.5903C24.7825 20.2905 26.1501 20.0131 26.2449 19.9738C26.4097 19.9054 26.4172 19.8633 26.4172 19.006C26.4172 17.9063 26.2872 17.5585 25.7609 17.25C25.4652 17.0768 25.2233 17.0317 23.7199 16.8696C22.7818 16.7684 21.6526 16.6889 21.2104 16.6929C20.7682 16.697 18.502 16.8817 16.1744 17.1035ZM1.38288 18.0844C0.983793 18.2116 0.50476 18.7222 0.323592 19.2134C0.0973224 19.8269 0 21.2274 0 23.8697C0 26.538 0.0983948 28.0167 0.314403 28.5941C0.502693 29.0973 0.883637 29.602 1.28556 29.8805C1.98321 30.3639 4.18617 31.1689 6.26188 31.6987C8.01996 32.1475 8.95245 32.0981 9.46893 31.5289C9.93755 31.0124 13.6366 26.1392 13.6744 25.9885C13.6987 25.8918 13.7072 25.3381 13.6933 24.7581L13.668 23.7036L11.524 21.6113C9.99903 20.1232 9.25843 19.4544 8.95889 19.295C8.36967 18.9814 6.0706 18.4821 3.65285 18.1426C2.42755 17.9707 1.79078 17.9543 1.38288 18.0844ZM4.44116 20.6395C5.50948 20.8116 7.16114 21.2422 7.45862 21.4261C7.88474 21.6894 7.95135 21.9347 8.05136 23.6079C8.14914 25.2451 8.04707 28.3655 7.88007 28.8446C7.77333 29.1507 7.61099 29.2408 7.16573 29.2408C6.36579 29.2408 3.99919 28.6227 3.00735 28.1547C2.09163 27.7227 2.04025 27.4966 2.03482 23.8808C2.0306 21.0364 2.07264 20.6454 2.39685 20.51C2.59907 20.4256 3.44756 20.4793 4.44116 20.6395Z" fill="white"/>
</svg>
