<svg width="80" height="21" viewBox="0 0 80 21" fill="none" xmlns="http://www.w3.org/2000/svg">
<g clip-path="url(#clip0_3518_1299)">
<path d="M0 17.0198V3.10596H4.18187V15.5268C4.18187 16.1538 4.42079 16.4528 5.10718 16.4528H6.74211V20.0961H3.31456C1.04547 20.0961 0 19.2301 0 17.0198Z" fill="#8B8B8B"/>
<path d="M7.92773 15.9716C7.92773 13.2419 9.69916 11.4416 13.1843 11.2093L16.8722 10.9769V10.3665C16.8722 9.11822 16.2342 8.59511 14.7811 8.59511C13.3589 8.59511 12.7773 9.00137 12.6323 9.93074H8.62476C8.91484 6.99761 10.9186 5.31348 15.0712 5.31348C18.5858 5.31348 20.7064 7.05603 20.7064 10.1053V16.4658C20.7064 16.727 20.8219 16.8721 21.0838 16.8721H22.361V20.096H19.4575C18.4408 20.096 17.8593 19.544 17.8015 18.673C17.0172 19.8059 15.4204 20.5318 13.4462 20.5318C10.0765 20.5318 7.92773 18.7892 7.92773 15.9716ZM13.9968 17.2501C15.595 17.2501 16.8722 16.4074 16.8722 14.6648V13.9974L13.8517 14.2586C12.5745 14.3747 11.9648 15.0422 11.9648 15.8265C11.9648 16.6981 12.6618 17.2501 13.9968 17.2501Z" fill="#8B8B8B"/>
<path d="M38.3086 12.9807C38.3086 8.45007 41.2699 5.31348 45.7139 5.31348C49.4609 5.31348 52.104 7.49183 52.3645 10.7735H48.2697C48.0669 9.81524 47.1657 8.9725 45.6562 8.9725C43.7102 8.9725 42.4907 10.4827 42.4907 12.9512C42.4907 15.4203 43.7397 16.8721 45.6266 16.8721C47.108 16.8721 48.0951 16.03 48.3274 14.781H52.4223C52.104 17.7726 49.606 20.5318 45.4816 20.5318C41.0094 20.5318 38.3086 17.3079 38.3086 12.9807Z" fill="#8B8B8B"/>
<path d="M53.167 12.8357C53.167 8.27548 56.0706 5.31348 60.3104 5.31348C64.7545 5.31348 67.427 8.15931 67.427 12.7188C67.427 13.2419 67.3975 13.765 67.3397 14.3747H57.1745C57.3491 16.175 58.539 17.1628 60.485 17.1628C61.7918 17.1628 62.6338 16.6109 63.0126 15.8265H67.1652C66.3231 18.673 64.1152 20.5318 60.4568 20.5318C56.0706 20.5318 53.167 17.4825 53.167 12.8357ZM63.3322 11.2959V11.2382C63.3322 9.61177 62.286 8.50782 60.3104 8.50782C58.4235 8.50782 57.2618 9.61177 57.145 11.2959H63.3322Z" fill="#8B8B8B"/>
<path d="M31.3338 5.31372C29.4895 5.31372 28.2789 6.24328 27.816 6.70078V5.74661H23.7363V20.0962H27.816V10.0162C28.2425 9.38546 29.1017 8.97276 30.4917 8.97276C32.1181 8.97276 32.9897 9.90211 32.9897 11.8193V20.0962H37.055V11.3835C37.055 7.57872 34.8484 5.31372 31.3338 5.31372Z" fill="#8B8B8B"/>
<path d="M79.9981 1.65069L72.8511 0L71.1318 10.8288L76.4085 12.0475L79.9981 1.65069Z" fill="#8B8B8B"/>
<path d="M72.5103 20.1612C74.4517 20.1612 76.0255 18.5874 76.0255 16.646C76.0255 14.7047 74.4517 13.1309 72.5103 13.1309C70.5689 13.1309 68.9951 14.7047 68.9951 16.646C68.9951 18.5874 70.5689 20.1612 72.5103 20.1612Z" fill="#8B8B8B"/>
</g>
<defs>
<clipPath id="clip0_3518_1299">
<rect width="80" height="20.532" fill="white"/>
</clipPath>
</defs>
</svg>
