<svg width="80" height="71" viewBox="0 0 80 71" fill="none" xmlns="http://www.w3.org/2000/svg">
<path d="M75 40C77.7614 40 80.0322 37.7528 79.6879 35.0129C79.047 29.9126 77.4268 24.9674 74.8998 20.4551C71.5557 14.4838 66.7354 9.47036 60.8999 5.89439C55.0645 2.31842 48.4091 0.299531 41.5704 0.0308384C34.7317 -0.237855 27.9384 1.25264 21.8404 4.35974C15.7423 7.46685 10.5435 12.0866 6.74121 17.7772C2.9389 23.4678 0.660278 30.0388 0.123306 36.8616C-0.413666 43.6845 0.808974 50.5311 3.67428 56.7464C5.83945 61.443 8.88786 65.6605 12.6374 69.1769C14.6517 71.0659 17.8044 70.5496 19.4275 68.3156C21.0506 66.0816 20.5182 62.9801 18.5844 61.0088C16.1792 58.557 14.204 55.7013 12.7557 52.5598C10.6067 47.8983 9.68975 42.7634 10.0925 37.6462C10.4952 32.5291 12.2042 27.6008 15.0559 23.3329C17.9076 19.065 21.8068 15.6001 26.3803 13.2698C30.9538 10.9395 36.0488 9.82161 41.1778 10.0231C46.3068 10.2246 51.2984 11.7388 55.675 14.4208C60.0515 17.1028 63.6668 20.8629 66.1749 25.3414C67.8652 28.3596 69.0145 31.6361 69.5843 35.023C70.0424 37.7462 72.2386 40 75 40Z" fill="url(#paint0_linear_2864_61506)"/>
<defs>
<linearGradient id="paint0_linear_2864_61506" x1="80" y1="39.579" x2="-2.08637e-06" y2="39.5789" gradientUnits="userSpaceOnUse">
<stop stop-color="#687CA1"/>
<stop offset="0.0001" stop-color="#00612F"/>
<stop offset="1" stop-color="#031E10"/>
</linearGradient>
</defs>
</svg>
