<svg width="111" height="35" viewBox="0 0 111 35" fill="none" xmlns="http://www.w3.org/2000/svg">
<g clipPath="url(#clip0_1974_33264)">
<path d="M14.9255 5.33954L5.84188 3.19788L3.6582 17.2458L10.3623 18.827L14.9255 5.33954Z" fill="white"/>
<path d="M5.4068 29.3523C7.87405 29.3523 9.87415 27.3105 9.87415 24.7919C9.87415 22.2732 7.87405 20.2314 5.4068 20.2314C2.93955 20.2314 0.939453 22.2732 0.939453 24.7919C0.939453 27.3105 2.93955 29.3523 5.4068 29.3523Z" fill="white"/>
<path d="M19.9521 29.2687V5.6958H23.0134V15.5229H23.0766C23.5308 14.6984 24.1797 14.003 24.9644 13.5C26.0471 12.8058 27.3045 12.4489 28.5828 12.4729C29.38 12.473 30.1717 12.6082 30.9256 12.8729C31.7124 13.1556 32.4198 13.6297 32.9868 14.2541C33.6502 15.002 34.1541 15.8824 34.4664 16.8396C34.8447 17.9104 35.0331 19.2486 35.0317 20.8541C35.0464 22.091 34.8877 23.3236 34.5603 24.5146C34.2855 25.526 33.815 26.4709 33.1766 27.2937C32.576 28.0474 31.8106 28.6468 30.9419 29.0437C29.9894 29.4651 28.9595 29.6732 27.9215 29.6541C26.8659 29.6861 25.8185 29.4544 24.8705 28.9791C24.074 28.5693 23.4001 27.9483 22.9195 27.1812H22.8256L22.4787 29.2645L19.9521 29.2687ZM22.846 21.2083C22.846 23.4125 23.2447 25.0097 24.0419 26C24.8392 26.9902 25.9277 27.4882 27.3072 27.4937C28.8379 27.4937 29.9862 26.9264 30.7521 25.7916C31.5181 24.6569 31.9032 23.0458 31.9073 20.9583C31.9261 19.9592 31.8254 18.9616 31.6073 17.9875C31.4551 17.2885 31.1663 16.6281 30.7583 16.0458C30.4149 15.5714 29.9533 15.1995 29.4215 14.9687C28.8625 14.737 28.2636 14.6223 27.6603 14.6312C27.0133 14.627 26.3718 14.753 25.7726 15.0021C25.1757 15.2557 24.6508 15.6583 24.246 16.1729C23.7812 16.7798 23.4348 17.4722 23.2256 18.2125C22.9544 19.1864 22.8265 20.196 22.846 21.2083Z" fill="white"/>
<path d="M50.8136 24.0665C50.7127 25.0462 50.3959 25.9899 49.887 26.827C49.4528 27.5163 48.8786 28.1024 48.2034 28.5457C47.5667 28.9567 46.8641 29.2501 46.1278 29.4124C45.4455 29.5671 44.7492 29.6481 44.0503 29.654C42.6435 29.654 41.453 29.4394 40.4789 29.0103C39.5542 28.6202 38.7346 28.0094 38.0891 27.229C37.4628 26.4485 37.0096 25.5387 36.7605 24.5624C36.4783 23.475 36.341 22.3538 36.3523 21.229C36.3382 20.0135 36.5188 18.8038 36.887 17.6478C37.2118 16.625 37.7367 15.6802 38.4299 14.8707C39.1175 14.0876 39.9731 13.4773 40.9299 13.0874C42.0171 12.6536 43.177 12.4413 44.3442 12.4624C46.5034 12.4624 48.1442 13.0721 49.2666 14.2915C50.3891 15.511 50.9503 17.2776 50.9503 19.5915C50.9503 19.9124 50.9401 20.2436 50.9197 20.5874C50.8993 20.9311 50.8666 21.2832 50.8238 21.6457H39.436C39.4307 22.4073 39.5102 23.167 39.6727 23.9103C39.8076 24.5565 40.0694 25.1681 40.4421 25.7082C40.8086 26.2202 41.2957 26.6293 41.8585 26.8978C42.5412 27.207 43.2834 27.3551 44.0299 27.3311C44.5485 27.3344 45.0658 27.275 45.5707 27.154C46.035 27.0455 46.4735 26.8437 46.8605 26.5603C47.2487 26.2706 47.5704 25.8981 47.8033 25.4686C48.0766 24.9521 48.2479 24.3858 48.3074 23.8019L50.8136 24.0665ZM48.0768 19.4415V18.9582C48.0768 17.654 47.7727 16.5999 47.1646 15.7957C46.5564 14.9915 45.5707 14.5901 44.2074 14.5915C43.4709 14.5693 42.7391 14.7175 42.0666 15.0249C41.508 15.2914 41.0139 15.6805 40.6197 16.1645C40.247 16.6274 39.9594 17.1554 39.7707 17.7228C39.5829 18.2767 39.4763 18.8558 39.4544 19.4415H48.0768Z" fill="white"/>
<path d="M51.6948 12.8896H53.6765V9.19583L56.6663 8.32916V12.8896H60.6601V15.0729H56.6663V23.6812C56.6663 24.9437 56.818 25.859 57.1214 26.4271C57.4248 26.9951 58.0595 27.2785 59.0254 27.2771C59.3995 27.2759 59.7728 27.2439 60.1418 27.1812C60.4667 27.1317 60.7874 27.0565 61.1009 26.9562L61.3846 29.1729C60.9779 29.3085 60.5627 29.4157 60.1418 29.4937C59.5359 29.6066 58.9209 29.6603 58.305 29.6542C57.5392 29.6774 56.7764 29.5464 56.0601 29.2687C55.5034 29.0432 55.0149 28.6716 54.6438 28.1917C54.2864 27.7056 54.0345 27.1474 53.905 26.5542C53.7529 25.875 53.679 25.18 53.6846 24.4833V15.0729H51.703L51.6948 12.8896Z" fill="white"/>
<path d="M60.0947 12.8896H62.0764V9.19583L65.0641 8.32916V12.8896H69.06V15.0729H65.0641V23.6812C65.0641 24.9437 65.2165 25.859 65.5213 26.4271C65.826 26.9951 66.4607 27.2785 67.4253 27.2771C67.7994 27.2759 68.1727 27.2439 68.5417 27.1812C68.8666 27.1317 69.1873 27.0565 69.5008 26.9562L69.7845 29.1729C69.3778 29.3085 68.9626 29.4157 68.5417 29.4937C67.9358 29.6066 67.3208 29.6603 66.7049 29.6542C65.9391 29.6774 65.1763 29.5464 64.46 29.2687C63.9033 29.0432 63.4148 28.6716 63.0437 28.1917C62.6863 27.7056 62.4344 27.1474 62.3049 26.5542C62.1528 25.875 62.0789 25.18 62.0845 24.4833V15.0729H60.1029L60.0947 12.8896Z" fill="white"/>
<path d="M70.3496 5.6958H73.4333V9.09997H70.3496V5.6958ZM70.3496 12.8896H73.4333V29.2687H70.3496V12.8896Z" fill="white"/>
<path d="M92.3394 29.269H89.2782V19.794C89.2782 18.0162 88.9897 16.7481 88.4128 15.9898C87.836 15.2315 86.8659 14.8509 85.5026 14.8481C84.8003 14.8287 84.1028 14.9711 83.4618 15.2648C82.9264 15.5185 82.4536 15.8915 82.0782 16.3565C81.7209 16.8073 81.4539 17.3255 81.2924 17.8815C81.125 18.4384 81.0397 19.0177 81.0394 19.6002V29.2669H77.9639V12.8898H80.7006L80.8577 15.619H80.921C81.1101 15.2204 81.3481 14.848 81.6292 14.5106C81.9538 14.1174 82.335 13.7767 82.7598 13.5002C83.2629 13.1767 83.8085 12.9277 84.3802 12.7606C85.088 12.5581 85.8207 12.4613 86.5557 12.4731C88.5271 12.4731 89.985 13.0349 90.9292 14.1586C91.8734 15.2822 92.3448 17.0752 92.3435 19.5377L92.3394 29.269Z" fill="white"/>
<path d="M109.454 12.8895V28.0416C109.454 30.4596 108.82 32.3117 107.552 33.5978C106.284 34.8839 104.319 35.5319 101.658 35.5416C99.813 35.5416 98.3395 35.1825 97.2375 34.4645C96.1399 33.7512 95.3563 32.6309 95.0518 31.3395L97.7579 30.6332C97.8776 30.9876 98.0357 31.3272 98.2293 31.6457C98.4213 31.9604 98.6666 32.2376 98.9538 32.4645C99.2835 32.7194 99.6564 32.91 100.054 33.027C100.597 33.1787 101.158 33.2489 101.721 33.2353C103.399 33.2353 104.615 32.8187 105.37 31.9853C106.125 31.152 106.501 29.768 106.497 27.8332V26.452H106.403C105.934 27.2543 105.281 27.9273 104.499 28.4124C103.629 28.9902 102.502 29.2791 101.117 29.2791C100.188 29.2861 99.2659 29.1246 98.3926 28.802C97.5774 28.501 96.8442 28.0061 96.2538 27.3582C95.6182 26.6385 95.1451 25.7851 94.8681 24.8582C94.5203 23.6771 94.3557 22.4476 94.3803 21.2145C94.3585 19.9443 94.5341 18.6785 94.9007 17.4645C95.2044 16.4602 95.7073 15.5305 96.3783 14.7332C97.0102 13.9996 97.7965 13.4212 98.6783 13.0416C99.6236 12.6483 100.637 12.4549 101.658 12.4728C102.937 12.4728 103.949 12.7346 104.695 13.2582C105.399 13.7395 105.994 14.3697 106.44 15.1062H106.535L106.817 12.8895H109.454ZM106.623 20.8228C106.643 19.8312 106.526 18.8416 106.276 17.8832C106.095 17.1818 105.773 16.5264 105.331 15.9582C104.958 15.4964 104.476 15.1382 103.931 14.9166C103.395 14.703 102.824 14.5942 102.248 14.5957C101.634 14.5929 101.026 14.7074 100.454 14.9332C99.8729 15.1694 99.3593 15.5504 98.9599 16.0416C98.4865 16.6391 98.1341 17.3267 97.9232 18.0645C97.6393 19.0545 97.5065 20.0832 97.5293 21.1145C97.5101 22.0522 97.6214 22.9879 97.8599 23.8937C98.0369 24.5691 98.3527 25.1984 98.7865 25.7395C99.1655 26.1956 99.6533 26.5443 100.203 26.752C100.778 26.9608 101.386 27.0638 101.997 27.0562C103.485 27.0562 104.628 26.5534 105.425 25.5478C106.223 24.5423 106.622 22.9673 106.623 20.8228Z" fill="white"/>
</g>
<defs>
<clipPath id="clip0_1974_33264">
<rect width="110" height="35" fill="white" transform="translate(0.841797)"/>
</clipPath>
</defs>
</svg>
