<svg width="126" height="32" viewBox="0 0 126 32" fill="none" xmlns="http://www.w3.org/2000/svg">
<g clipPath="url(#clip0_1974_33237)">
<path d="M0.658203 27.5262V5.84094H7.17582V25.1994C7.17582 26.1766 7.5482 26.6426 8.61797 26.6426H11.1661V32.3208H5.82409C2.28761 32.3208 0.658203 30.9712 0.658203 27.5262Z" fill="white"/>
<path d="M13.0137 25.8924C13.0137 21.6381 15.7745 18.8322 21.2062 18.4701L26.954 18.108V17.1567C26.954 15.2111 25.9597 14.3958 23.6949 14.3958C21.4783 14.3958 20.572 15.029 20.3459 16.4774H14.1C14.5521 11.906 17.6751 9.28125 24.1471 9.28125C29.6248 9.28125 32.9299 11.9971 32.9299 16.7496V26.6626C32.9299 27.0698 33.1099 27.2958 33.518 27.2958H35.5086V32.3204H30.9832C29.3987 32.3204 28.4924 31.4601 28.4024 30.1027C27.18 31.8683 24.6913 32.9996 21.6144 32.9996C16.3627 32.9996 13.0137 30.2838 13.0137 25.8924ZM22.4725 27.885C24.9634 27.885 26.954 26.5716 26.954 23.8557V22.8155L22.2465 23.2226C20.2559 23.4036 19.3056 24.4439 19.3056 25.6663C19.3056 27.0248 20.392 27.885 22.4725 27.885Z" fill="white"/>
<path d="M60.3652 21.2314C60.3652 14.1703 64.9806 9.28174 71.9068 9.28174C77.7466 9.28174 81.8659 12.6768 82.272 17.7914H75.89C75.574 16.2979 74.1695 14.9845 71.8168 14.9845C68.7838 14.9845 66.8833 17.3382 66.8833 21.1854C66.8833 25.0336 68.8299 27.2963 71.7707 27.2963C74.0795 27.2963 75.6179 25.9839 75.98 24.0373H82.362C81.8659 28.6998 77.9727 33.0001 71.5447 33.0001C64.5745 33.0001 60.3652 27.9755 60.3652 21.2314Z" fill="white"/>
<path d="M83.5215 21.0049C83.5215 13.8977 88.0468 9.28125 94.6549 9.28125C101.581 9.28125 105.746 13.7166 105.746 20.8228C105.746 21.6381 105.7 22.4533 105.61 23.4036H89.7674C90.0395 26.2095 91.894 27.749 94.927 27.749C96.9636 27.749 98.276 26.8887 98.8663 25.6663H105.338C104.026 30.1027 100.585 32.9996 94.883 32.9996C88.0468 32.9996 83.5215 28.2471 83.5215 21.0049ZM99.3644 18.6051V18.5151C99.3644 15.9803 97.7339 14.2598 94.6549 14.2598C91.714 14.2598 89.9035 15.9803 89.7214 18.6051H99.3644Z" fill="white"/>
<path d="M49.4952 9.28125C46.6209 9.28125 44.7342 10.73 44.0127 11.443V9.95592H37.6543V32.3204H44.0127V16.6102C44.6773 15.6272 46.0164 14.984 48.1828 14.984C50.7176 14.984 52.076 16.4325 52.076 19.4204V32.3204H58.412V18.7412C58.412 12.8114 54.9729 9.28125 49.4952 9.28125Z" fill="white"/>
<path d="M125.34 3.57268L114.201 1L111.521 17.8771L119.745 19.7765L125.34 3.57268Z" fill="white"/>
<path d="M113.672 32.4219C116.698 32.4219 119.15 29.9691 119.15 26.9434C119.15 23.9177 116.698 21.4648 113.672 21.4648C110.646 21.4648 108.193 23.9177 108.193 26.9434C108.193 29.9691 110.646 32.4219 113.672 32.4219Z" fill="white"/>
</g>
<defs>
<clipPath id="clip0_1974_33237">
<rect width="124.683" height="32" fill="white" transform="translate(0.658203)"/>
</clipPath>
</defs>
</svg>
