<svg width="65" height="32" viewBox="0 0 65 32" fill="none" xmlns="http://www.w3.org/2000/svg">
<path d="M18.2002 5.19248L8.52804 3L6.2002 17.3812L13.3424 19L18.2002 5.19248Z" fill="white"/>
<path d="M7.7002 30C10.1855 30 12.2002 27.9853 12.2002 25.5C12.2002 23.0147 10.1855 21 7.7002 21C5.21491 21 3.2002 23.0147 3.2002 25.5C3.2002 27.9853 5.21491 30 7.7002 30Z" fill="white"/>
<path d="M23.2002 29.6108V6H26.2459V15.8429H26.3088C26.5094 15.4723 26.7513 15.1271 27.0297 14.8141C27.3678 14.4273 27.7574 14.0915 28.187 13.8167C29.2639 13.1206 30.5151 12.7631 31.7871 12.788C32.5803 12.7881 33.3679 12.9235 34.118 13.1886C34.9008 13.4718 35.6046 13.9466 36.1688 14.5721C36.8267 15.3216 37.3259 16.2034 37.6348 17.1616C38.0098 18.2342 38.1979 19.5745 38.1993 21.1827C38.2139 22.4215 38.0559 23.6561 37.7302 24.849C37.4561 25.8621 36.9873 26.8086 36.3515 27.6326C35.7547 28.3874 34.9939 28.9878 34.1302 29.3854C33.1825 29.8074 32.1578 30.0159 31.1251 29.9968C30.0714 30.0305 29.0257 29.7984 28.0794 29.3207C27.2865 28.9108 26.6159 28.2887 26.1383 27.5199H26.0449L25.6997 29.6066L23.2002 29.6108ZM26.0794 21.5374C26.0794 23.7451 26.476 25.3449 27.2693 26.3368C28.0625 27.3286 29.1454 27.8273 30.518 27.8329C32.0409 27.8329 33.1833 27.2646 33.9454 26.1281C34.7075 24.9915 35.0906 23.3778 35.0947 21.287C35.1128 20.2834 35.0112 19.2813 34.7921 18.303C34.6398 17.6033 34.3526 16.942 33.9475 16.3583C33.6058 15.8831 33.1466 15.5106 32.6175 15.2795C32.0613 15.0474 31.4654 14.9325 30.8652 14.9414C30.2215 14.9372 29.5833 15.0634 28.987 15.3128C28.3982 15.5696 27.881 15.9734 27.4825 16.4876C27.0192 17.0951 26.6745 17.7887 26.4672 18.5305C26.1934 19.5074 26.0627 20.5209 26.0794 21.5374Z" fill="white"/>
<path d="M41.2002 6H44.2002V9.46584H41.2002V6ZM41.2002 13.3241H44.2002V30H41.2002V13.3241Z" fill="white"/>
<path d="M46.5241 12H59.1686V14.4713L50.0259 27.2516H59.2002V30H46.2002V27.4577L55.4081 14.6064H46.5241V12Z" fill="white"/>
</svg>
