<svg width="57" height="28" viewBox="0 0 57 28" fill="none" xmlns="http://www.w3.org/2000/svg">
<g clip-path="url(#clip0_2780_14646)">
<path d="M5.44814 23.9293V22.2217L2.48537 22.1882V23.8472L5.44814 23.9299V23.9293ZM5.26086 20.4189V18.783L2.48537 18.8434V20.4354L5.26086 20.4189ZM6.05216 25.8576L0.112793 25.5829V17.0925L6.12404 16.8508C7.27472 16.8048 7.6196 17.4657 7.6196 18.5478V20.1226C7.6196 20.6568 7.44683 21.0365 7.14481 21.1902C7.64795 21.3735 7.83522 21.7829 7.83522 22.3604V24.2762C7.83522 25.079 7.27406 25.9128 6.05216 25.8563" fill="#06379D"/>
<path d="M8.68506 16.7449L15.5305 16.4696V18.6324L11.0721 18.7264V20.2671L14.1932 20.2447V22.3668L11.0721 22.33V24.0159L15.5305 24.1368V26.2996L8.68506 25.983V16.7449Z" fill="#06379D"/>
<path d="M18.9076 18.6056L16.146 18.6627V16.4414L24.0557 16.1234V18.4985L21.3092 18.5556V26.571L18.9076 26.46V18.6056Z" fill="#06379D"/>
<path d="M27.3909 18.4295L24.6299 18.4867V16.1005L32.5396 15.7825V18.3224L29.7925 18.3796V26.9633L27.3909 26.8523V18.4295Z" fill="#06379D"/>
<path d="M33.3652 15.7496L35.7523 15.6537V27.2386L33.3652 27.1282V15.7496Z" fill="#06379D"/>
<path d="M42.1821 27.5355L40.2263 23.7617C39.7515 22.5042 39.2338 20.6699 38.7881 18.9584C38.8309 20.5989 38.8599 22.2033 38.8599 23.0239V27.3824L36.8032 27.2872V15.6116L39.6506 15.4973L41.7792 20.0681C42.3258 21.5785 42.8863 23.4391 43.3466 25.0665C43.2747 23.4083 43.2174 21.7322 43.2174 20.7914V15.3541L45.2596 15.272V27.6788L42.1821 27.5362V27.5355Z" fill="#06379D"/>
<path d="M51.681 19.3006V17.9446L48.6325 18.0076V24.9817L51.7245 25.0645V22.9102L49.9698 22.8885V20.4832L54.0252 20.4681V25.4501C54.0252 26.6649 53.5939 28.063 52.1841 27.998L48.2434 27.816C47.0354 27.7601 46.2876 26.8988 46.2876 25.188V17.5563C46.2876 15.8264 47.0789 15.1983 48.0852 15.1582L52.3133 14.9881C53.5643 14.9375 54.0245 15.9926 54.0245 17.8151V19.273L51.6803 19.3L51.681 19.3006Z" fill="#06379D"/>
<path d="M0 11.7268V2.13989H2.9799V10.698C2.9799 11.1303 3.15003 11.3359 3.63932 11.3359H4.80451V13.8463H2.36269C0.745801 13.8463 0.00131883 13.2498 0.00131883 11.7268H0Z" fill="#06379D"/>
<path d="M5.64795 11.0048C5.64795 9.12379 6.91007 7.88338 9.39344 7.72373L12.0212 7.56342V7.14294C12.0212 6.28293 11.5669 5.92223 10.5316 5.92223C9.49631 5.92223 9.10395 6.20212 9.00043 6.84269H6.14515C6.35155 4.82176 7.77984 3.6615 10.738 3.6615C13.2425 3.6615 14.7532 4.86184 14.7532 6.96292V11.3451C14.7532 11.5251 14.8356 11.625 15.0222 11.625H15.9322V13.8463H13.8636C13.1396 13.8463 12.7248 13.4659 12.6839 12.8661C12.1254 13.6466 10.9872 14.1466 9.58071 14.1466C7.17977 14.1466 5.64861 12.9462 5.64861 11.0048H5.64795ZM9.9724 11.8858C11.1112 11.8858 12.0212 11.305 12.0212 10.1047V9.64479L9.86888 9.82481C8.95888 9.90496 8.52433 10.3649 8.52433 10.9049C8.52433 11.5054 9.02087 11.8858 9.9724 11.8858Z" fill="#06379D"/>
<path d="M27.2954 8.9437C27.2954 5.82229 29.4055 3.66077 32.5714 3.66077C35.2414 3.66077 37.124 5.16201 37.31 7.42274H34.3927C34.2483 6.76246 33.606 6.18167 32.5305 6.18167C31.1438 6.18167 30.2753 7.22236 30.2753 8.92333C30.2753 10.6243 31.1655 11.6249 32.5094 11.6249C33.5651 11.6249 34.2681 11.0448 34.4336 10.1841H37.3509C37.124 12.2451 35.3443 14.1465 32.4059 14.1465C29.2196 14.1465 27.2954 11.9252 27.2954 8.9437Z" fill="#06379D"/>
<path d="M37.8813 8.84383C37.8813 5.70206 39.9499 3.66077 42.9714 3.66077C45.9928 3.66077 48.0416 5.62191 48.0416 8.76302C48.0416 9.12372 48.0205 9.48375 47.9797 9.90423H40.7366C40.8613 11.1446 41.7086 11.8253 43.0954 11.8253C44.0265 11.8253 44.6265 11.4449 44.8962 10.9048H47.855C47.255 12.866 45.6823 14.1471 43.0756 14.1471C39.9506 14.1471 37.8813 12.0461 37.8813 8.84449V8.84383ZM45.1244 7.78278V7.7427C45.1244 6.62186 44.3792 5.86171 42.9714 5.86171C41.5635 5.86171 40.7993 6.62252 40.7162 7.78278H45.1244Z" fill="#06379D"/>
<path d="M22.3267 3.6615C21.0125 3.6615 20.15 4.30207 19.8203 4.61743V3.95978H16.9136V13.847H19.8203V6.90182C20.1243 6.46754 20.7362 6.18306 21.7267 6.18306C22.8853 6.18306 23.5064 6.82364 23.5064 8.14421V13.847H26.4032V7.84396C26.4032 5.22253 24.8312 3.6615 22.3267 3.6615Z" fill="#06379D"/>
<path d="M56.9998 1.13727L51.9078 0L50.6826 7.46089L54.442 8.30119L56.9998 1.13727Z" fill="#06379D"/>
<path d="M51.6641 13.8909C53.0473 13.8909 54.1686 12.8067 54.1686 11.4692C54.1686 10.1317 53.0473 9.04749 51.6641 9.04749C50.281 9.04749 49.1597 10.1317 49.1597 11.4692C49.1597 12.8067 50.281 13.8909 51.6641 13.8909Z" fill="#06379D"/>
</g>
<defs>
<clipPath id="clip0_2780_14646">
<rect width="57" height="28" fill="white"/>
</clipPath>
</defs>
</svg>
