<svg width="70" height="32" viewBox="0 0 70 32" fill="none" xmlns="http://www.w3.org/2000/svg">
<path d="M39.5368 20.1809C39.5368 24.7488 37.0394 27.47 33.143 27.47C30.9255 27.47 29.1627 26.3508 28.3442 24.7488L28.2043 27.1902H26.2386V6.71484H28.4841V15.3541C29.3515 13.8991 31.0374 12.8847 33.136 12.8847C37.0394 12.8847 39.5368 15.6059 39.5368 20.1809ZM37.2912 20.1809C37.2912 16.928 35.6334 14.8504 32.8912 14.8504C30.226 14.8504 28.4911 16.8441 28.4911 20.013V20.3488C28.4911 23.5176 30.233 25.5113 32.8912 25.5113C35.6334 25.5043 37.2912 23.4337 37.2912 20.1809Z" fill="#181818"/>
<path d="M54.1429 21.0203H43.5729C43.8527 23.8535 45.5666 25.5044 48.1409 25.5044C50.1905 25.5044 51.5896 24.7768 52.0932 23.4267L53.975 24.4061C52.9117 26.3158 51.1699 27.463 48.1409 27.463C43.9087 27.463 41.3554 24.7139 41.3554 20.1739C41.3554 15.6339 43.7408 12.8848 47.973 12.8848C52.0373 12.8848 54.2548 15.8298 54.2548 19.4464C54.2618 20.097 54.2058 20.6286 54.1429 21.0203ZM43.6009 19.0267H52.1002C51.7924 16.4454 50.3584 14.8505 47.98 14.8505C45.4827 14.8505 43.9367 16.3964 43.6009 19.0267Z" fill="#181818"/>
<path d="M64.9999 26.2102C64.1324 26.9937 62.9222 27.4694 61.3833 27.4694C59.3056 27.4694 57.5148 26.4341 57.4869 23.7129V15.1016H54.6817V13.1639H57.4869V9.79918L59.7324 9.18359V13.1639H64.9229V15.1016H59.7324V23.3212C59.7324 24.6923 60.5998 25.3708 61.838 25.3708C62.8453 25.3708 63.5798 24.9791 64.2234 24.3355L64.9999 26.2102Z" fill="#181818"/>
<path d="M25.1616 4.98668L16.5784 3L14.5147 16.0043L20.8525 17.4664L25.1616 4.98668Z" fill="#007A18"/>
<path d="M16.1655 27.2118C18.4952 27.2118 20.3837 25.3232 20.3837 22.9936C20.3837 20.6639 18.4952 18.7754 16.1655 18.7754C13.8359 18.7754 11.9474 20.6639 11.9474 22.9936C11.9474 25.3232 13.8359 27.2118 16.1655 27.2118Z" fill="#007A18"/>
</svg>
