<svg width="34" height="34" viewBox="0 0 34 34" fill="none" xmlns="http://www.w3.org/2000/svg">
<path d="M29.75 7.79623H4.25C3.66917 7.79623 3.1875 7.31775 3.1875 6.74077C3.1875 6.16378 3.66917 5.6853 4.25 5.6853H29.75C30.3308 5.6853 30.8125 6.16378 30.8125 6.74077C30.8125 7.31775 30.3308 7.79623 29.75 7.79623Z" fill="#042562"/>
<path d="M29.75 17.9991H4.25C3.66917 17.9991 3.1875 17.5206 3.1875 16.9436C3.1875 16.3667 3.66917 15.8882 4.25 15.8882H29.75C30.3308 15.8882 30.8125 16.3667 30.8125 16.9436C30.8125 17.5206 30.3308 17.9991 29.75 17.9991Z" fill="#042562"/>
<path d="M29.75 28.2017H4.25C3.66917 28.2017 3.1875 27.7233 3.1875 27.1463C3.1875 26.5693 3.66917 26.0908 4.25 26.0908H29.75C30.3308 26.0908 30.8125 26.5693 30.8125 27.1463C30.8125 27.7233 30.3308 28.2017 29.75 28.2017Z" fill="#042562"/>
</svg>
