<svg width="62" height="59" viewBox="0 0 62 59" fill="none" xmlns="http://www.w3.org/2000/svg">
<path d="M43.2489 28.9168C43.4453 35.7937 38.0555 41.5355 31.2037 41.7358C24.5338 41.9361 18.8967 36.4243 18.7003 29.5177C18.5039 22.6483 23.8864 16.9064 30.7018 16.6987C37.4082 16.4984 43.0525 21.988 43.2489 28.9168ZM20.5842 29.221C20.5842 35.0964 25.232 39.8219 31.0001 39.8219C36.7099 39.8219 41.3578 35.0964 41.3723 29.2655C41.3869 23.3679 36.7463 18.6201 30.9564 18.6201C25.232 18.6201 20.5842 23.3605 20.5842 29.221Z" fill="#979797"/>
<path d="M13.7688 27.166C14.0015 25.8085 14.227 24.4732 14.6852 23.1898C17.1001 16.4836 21.7407 12.3886 28.658 11.2313C36.6299 9.89602 44.3764 14.4509 47.4531 22.0696C47.5477 22.2996 47.6568 22.537 47.6277 22.7966C47.5768 23.2269 47.2567 23.5755 46.8421 23.6497C46.4566 23.7165 46.0493 23.5162 45.8602 23.123C45.6202 22.6112 45.4238 22.077 45.1619 21.58C42.5652 16.6616 38.5501 13.761 33.1313 13.034C24.832 11.9212 17.1292 17.9153 15.8417 26.402C15.7981 26.669 15.7399 26.9287 15.769 27.2031C15.929 27.2106 15.9509 27.0696 16.0163 26.988C16.3145 26.58 16.6055 26.172 16.9037 25.764C17.3256 25.1853 17.8638 25.0518 18.3293 25.4079C18.7876 25.7566 18.824 26.3352 18.4094 26.9138C17.4129 28.3159 16.4091 29.7106 15.4053 31.1052C14.8598 31.8619 14.1033 31.8174 13.6669 31.0088C12.8377 29.4806 12.0158 27.9524 11.1866 26.4242C11.012 26.1052 10.932 25.7862 11.0702 25.445C11.2084 25.0963 11.4775 24.896 11.8412 24.8589C12.2413 24.8144 12.5613 24.9925 12.7577 25.3485C13.0996 25.9494 13.4269 26.5652 13.7615 27.1735L13.7688 27.166Z" fill="#979797"/>
<path d="M46.5949 31.5207C46.1366 32.1512 45.7511 32.7076 45.3438 33.2417C45.0456 33.6275 44.6019 33.7165 44.2018 33.5162C43.8018 33.3159 43.5981 32.8782 43.7145 32.4257C43.7581 32.2699 43.8382 32.1216 43.9327 31.9955C44.951 30.5711 45.9693 29.1542 47.0022 27.7373C47.5114 27.0325 48.2824 27.0771 48.7042 27.8486C49.5625 29.4139 50.4063 30.9791 51.25 32.5444C51.5191 33.0414 51.3809 33.6052 50.93 33.8723C50.479 34.1394 49.9189 33.9984 49.6353 33.5088C49.2789 32.8931 48.9588 32.2625 48.5588 31.5429C48.4206 32.5147 48.3042 33.3753 48.1078 34.2284C46.544 41.0682 40.7687 46.5355 33.9532 47.5963C25.7849 48.8723 18.0675 44.4806 14.9399 36.7729C14.8453 36.5429 14.7362 36.3055 14.7653 36.0459C14.8089 35.6082 15.129 35.267 15.5508 35.2002C15.9945 35.126 16.38 35.3263 16.5692 35.7937C16.9619 36.7432 17.3765 37.6854 17.9439 38.5385C21.5298 43.902 26.505 46.4242 32.8404 45.7937C39.7649 45.1038 45.2638 39.7551 46.5003 32.7447C46.5658 32.3812 46.6531 32.0177 46.6021 31.5207H46.5949Z" fill="#979797"/>
<path d="M31.8656 25.8604C31.8656 26.6542 31.8656 27.3812 31.8656 28.1082C31.8656 28.3382 32.0184 28.3678 32.1639 28.4272C32.6658 28.6275 33.1676 28.8352 33.6259 29.1393C34.9861 30.0592 35.1897 31.8248 34.0696 33.0488C33.6113 33.5533 33.0513 33.902 32.4039 34.08C32.0329 34.1839 31.8729 34.31 31.8656 34.7551C31.8584 35.534 31.2619 35.9198 30.5782 35.6749C30.1127 35.5117 29.9745 35.126 29.9963 34.6809C30.0109 34.3767 29.909 34.2803 29.6181 34.2358C28.0761 33.9761 27.0868 32.6557 27.2178 31.0607C27.2687 30.4598 27.6178 30.0666 28.127 30.0444C28.6434 30.0221 29.0435 30.4079 29.1017 31.0385C29.1453 31.4836 29.218 31.899 29.6035 32.1735C29.6981 32.2402 29.8072 32.307 29.9309 32.2699C30.0836 32.218 30.0254 32.0696 30.0254 31.9658C30.0254 31.2833 30.0181 30.5933 30.0327 29.9109C30.0327 29.666 29.9309 29.5696 29.7345 29.5028C29.2762 29.3396 28.8544 29.1022 28.4616 28.8055C27.5524 28.1082 27.0068 27.2031 27.2396 26.031C27.4796 24.807 28.2797 24.0206 29.4653 23.6794C29.7999 23.583 30.0472 23.5459 30.0545 23.0711C30.0545 22.5963 30.4837 22.3738 31.0728 22.4034C31.582 22.4331 31.9166 22.715 31.9238 23.2343C31.9238 23.6275 32.0693 23.7833 32.4112 23.9316C33.4149 24.3767 34.0841 25.1631 34.4405 26.2165C34.6515 26.8396 34.4551 27.3515 33.9386 27.5518C33.4222 27.7521 32.9349 27.4999 32.6949 26.899C32.4694 26.35 32.3312 26.1571 31.8729 25.8604H31.8656ZM30.0254 26.6245C30.0254 26.3426 30.0254 26.0607 30.0254 25.7788C30.0254 25.534 29.9236 25.5117 29.7272 25.5933C29.3562 25.7491 29.0289 26.1942 29.0216 26.58C29.0071 27.0548 29.3199 27.2847 29.6835 27.485C29.9018 27.6037 30.0618 27.6482 30.0327 27.2847C30.0109 27.0622 30.0327 26.8396 30.0327 26.6171L30.0254 26.6245ZM31.9166 31.3649C31.9893 31.5948 31.7565 32.0622 32.0184 32.1512C32.3021 32.2402 32.6003 31.8767 32.8112 31.6097C33.0003 31.3649 32.9712 31.0978 32.7967 30.8678C32.6076 30.6082 32.2948 30.4005 32.0184 30.445C31.8002 30.4821 31.9529 30.8604 31.9238 31.0755C31.9093 31.1497 31.9238 31.2239 31.9238 31.3649H31.9166Z" fill="#979797"/>
</svg>
