<svg width="43" height="60" viewBox="0 0 43 60" fill="none" xmlns="http://www.w3.org/2000/svg">
<path d="M23.78 59.1365H18.93C17.77 59.0265 16.6 58.9165 15.44 58.7965C10.67 58.2965 6.07 57.1265 1.61 55.3965C0.580001 54.9965 0.01 54.2065 0 53.0865C0 45.6065 0 38.1165 0 30.6365C0 29.5065 0.590002 28.7065 1.65 28.3065C2.24 28.0865 2.83 27.8465 3.44 27.6665C3.94 27.5265 4.08 27.2465 4.08 26.7465C4.06 23.7265 4.06 20.7065 4.08 17.6865C4.08 16.1065 4.23 14.5365 4.64 13.0065C5.97 8.10651 8.86 4.39651 13.34 2.04651C17.98 -0.393492 22.83 -0.653493 27.72 1.27651C32.31 3.08651 35.52 6.36651 37.41 10.9265C38.42 13.3665 38.68 15.9365 38.66 18.5465C38.64 21.2965 38.66 24.0465 38.65 26.7965C38.65 27.2465 38.78 27.5065 39.23 27.6365C39.84 27.8165 40.43 28.0565 41.02 28.2765C42.14 28.6865 42.72 29.4865 42.72 30.6865C42.72 38.1265 42.72 45.5765 42.72 53.0165C42.72 54.1565 42.17 54.9665 41.11 55.3765C36.65 57.1165 32.04 58.2765 27.28 58.7765C26.12 58.8965 24.95 59.0065 23.79 59.1165L23.78 59.1365ZM32.69 20.9065C32.69 20.9065 32.69 20.9065 32.68 20.9065C32.68 19.5965 32.71 18.2865 32.68 16.9865C32.52 11.0765 27.86 6.32651 21.95 6.02651C15.6 5.69651 10.22 10.6265 10.06 16.9765C9.99 19.7265 10.06 22.4765 10.02 25.2265C10.02 25.8165 10.22 25.8265 10.68 25.7265C13.15 25.2165 15.64 24.8965 18.16 24.7465C22.87 24.4565 27.53 24.8065 32.15 25.7565C32.58 25.8465 32.72 25.7665 32.71 25.2965C32.68 23.8365 32.7 22.3765 32.7 20.9165L32.69 20.9065ZM19.01 45.5265C19.01 45.5265 19.02 45.5265 19.03 45.5265C19.03 46.8165 18.99 48.1065 19.04 49.3865C19.08 50.3865 19.65 51.0665 20.59 51.4065C22.15 51.9665 23.67 50.8565 23.69 49.1165C23.72 46.7765 23.71 44.4265 23.69 42.0865C23.69 41.6465 23.79 41.3665 24.17 41.0865C25.88 39.8465 26.46 37.7965 25.74 35.7465C25.12 33.9865 23.2 32.6765 21.31 32.7265C19.3 32.7765 17.51 34.0865 16.91 35.9565C16.27 37.9665 16.91 39.9165 18.62 41.1465C18.93 41.3665 19.02 41.5965 19.02 41.9565C19 43.1465 19.02 44.3365 19.02 45.5265H19.01Z" fill="white"/>
</svg>
