<svg width="62" height="59" viewBox="0 0 62 59" fill="none" xmlns="http://www.w3.org/2000/svg">
<path d="M23.5742 21.9006C22.7697 18.3228 23.6944 15.4112 26.7091 13.3211C29.2615 11.5596 32.7108 11.5596 35.2631 13.3211C38.2871 15.4112 39.2026 18.3228 38.4073 21.9006H39.0454C43.364 21.9006 47.6734 21.9006 51.992 21.9006C52.8983 21.9006 53 21.9919 53 22.8589C53 30.5895 53 38.3202 53 46.0417C53 46.8722 52.8613 47 52.0382 47C38.0097 47 23.9903 47 9.96175 47C9.12947 47 9 46.8631 9 46.0417C9 38.311 9 30.5804 9 22.8589C9 21.9827 9.09248 21.9006 9.99874 21.9006C14.2989 21.9006 18.5897 21.9006 22.8899 21.9006H23.5834H23.5742ZM30.9908 23.0232C24.2215 23.0232 17.4523 23.0232 10.6831 23.0232C10.2577 23.0232 10.119 23.1054 10.119 23.5617C10.1375 30.8177 10.1375 38.0646 10.119 45.3206C10.119 45.7861 10.2577 45.8956 10.7108 45.8956C24.2308 45.8865 37.76 45.8865 51.2799 45.8956C51.7331 45.8956 51.8718 45.7861 51.8718 45.3206C51.8533 38.0829 51.8533 30.8542 51.8718 23.6165C51.8718 23.1145 51.7146 23.0232 51.243 23.0232C44.4922 23.0415 37.7415 23.0323 30.9908 23.0323V23.0232ZM34.2829 21.9006C35.0504 21.9006 35.7902 21.8641 36.5301 21.9097C37.0479 21.9462 37.2514 21.7454 37.3531 21.2799C37.9264 18.8248 37.3531 16.6708 35.5036 14.9366C33.6541 13.1934 31.4161 12.737 28.984 13.4672C25.5902 14.4803 23.6482 18.1402 24.6839 21.4442C24.7486 21.6633 24.7671 21.9097 25.1185 21.9006C26.7739 21.8915 28.4292 21.9006 30.0845 21.9006C30.2047 21.9006 30.3897 21.9371 30.3989 21.7545C30.4174 21.2799 30.4914 20.778 30.3712 20.3307C30.2787 20.0113 29.8071 20.2121 29.5204 20.1391C29.3632 20.0934 29.1967 20.0752 29.0303 20.0387C28.0593 19.8014 27.5691 19.199 27.5506 18.2406C27.5414 17.3644 28.1148 16.5704 28.9563 16.3331C29.2984 16.2327 29.6591 16.2509 30.0105 16.2692C30.3249 16.2874 30.4359 16.1688 30.4266 15.8585C30.4174 15.4386 30.2972 14.8819 30.9723 14.8727C31.6473 14.8727 31.5549 15.4204 31.5364 15.8493C31.5179 16.2053 31.6658 16.2874 31.9895 16.2783C32.5443 16.2601 33.1084 16.2783 33.6633 16.2783C34.0702 16.2783 34.3939 16.3878 34.3939 16.8351C34.3939 17.2732 34.0794 17.4101 33.6726 17.4101C33.0992 17.4101 32.5166 17.4101 31.9433 17.4101C31.8045 17.4101 31.5826 17.3462 31.5734 17.5378C31.5456 18.0125 31.4716 18.5144 31.5918 18.9617C31.6751 19.2537 32.1559 19.0894 32.4426 19.1716C32.5813 19.2081 32.7385 19.2172 32.8773 19.2537C34.0609 19.5367 34.5696 20.3216 34.3384 21.499C34.3106 21.6268 34.2921 21.7454 34.2551 21.9188L34.2829 21.9006ZM30.4266 18.2498C30.4174 17.2732 30.5191 17.4009 29.8348 17.3918C29.0673 17.3827 28.7158 17.6474 28.7158 18.2224C28.7158 18.7883 29.1412 19.0529 30.0383 19.0529C30.7873 19.0529 30.2417 18.4597 30.4266 18.2498ZM31.5549 21.0335C31.6011 21.4534 31.3329 21.9919 32.1467 21.9188C32.905 21.8549 33.2657 21.645 33.2749 21.0791C33.2749 20.5041 32.8958 20.2577 31.971 20.2395C31.2034 20.2303 31.7583 20.8236 31.5641 21.0335H31.5549Z" fill="#979797"/>
<path d="M30.6754 27.548C32.8848 27.548 35.0942 27.548 37.3127 27.548C38.0673 27.548 38.2037 27.6836 38.2037 28.4427C38.2037 32.419 38.2037 36.4043 38.2037 40.3805C38.2037 41.0944 38.0673 41.239 37.3399 41.239C32.8575 41.239 28.3842 41.239 23.9018 41.239C23.1745 41.239 23.0472 41.0944 23.0381 40.3715C23.0381 36.3771 23.0381 32.3738 23.0381 28.3794C23.0381 27.7017 23.1927 27.548 23.8746 27.548C26.1385 27.548 28.4115 27.548 30.6754 27.548ZM30.6027 40.1094C32.5939 40.1094 34.585 40.1004 36.5853 40.1184C37.0035 40.1184 37.1035 39.9919 37.0945 39.5943C37.0763 36.1241 37.0763 32.6539 37.0945 29.1747C37.0945 28.7771 37.0126 28.6415 36.5853 28.6415C32.603 28.6596 28.6115 28.6596 24.6292 28.6415C24.2382 28.6415 24.1473 28.768 24.1473 29.1385C24.1564 32.6268 24.1655 36.1151 24.1473 39.6124C24.1473 40.0552 24.311 40.1094 24.6838 40.1094C26.6567 40.0913 28.6297 40.1094 30.6118 40.1094H30.6027Z" fill="#979797"/>
<path d="M30.0574 36.3771C30.0574 34.9493 30.0574 33.5124 30.0574 32.0846C30.0574 31.7954 30.0574 31.5062 30.0574 31.208C30.0574 30.7923 30.0392 30.3495 30.6302 30.3585C31.1848 30.3585 31.1757 30.7833 31.1757 31.1809C31.1757 32.7081 31.1757 34.2354 31.1757 35.7626V36.5308C31.6576 36.0518 32.0485 35.6723 32.4304 35.2837C32.6122 35.1029 32.7941 34.9222 32.9759 34.7415C33.2305 34.4884 33.5214 34.4161 33.7942 34.6872C34.0942 34.9764 34.0306 35.2746 33.7578 35.5457C33.0123 36.2958 32.2576 37.0368 31.5121 37.7869C30.9181 38.3773 30.3301 38.3834 29.7482 37.805C29.0209 37.082 28.3026 36.3591 27.5752 35.6452C27.2934 35.365 27.0752 35.0668 27.4297 34.7143C27.7752 34.3619 28.0844 34.5607 28.3662 34.8499C28.8845 35.3831 29.4118 35.9163 29.9392 36.4494C29.9846 36.4314 30.0301 36.4043 30.0755 36.3862L30.0574 36.3771Z" fill="#979797"/>
</svg>
