<svg width="30" height="32" viewBox="0 0 30 32" fill="none" xmlns="http://www.w3.org/2000/svg">
<path d="M15.7625 0H20.9062L20.9562 0.54375C20.9874 0.85 21.0562 1.33125 21.125 1.625C21.1875 1.91875 21.2999 2.3375 21.375 2.5625C21.45 2.7875 21.6062 3.16875 21.7187 3.40625C21.8312 3.64375 22.1 4.1125 22.3125 4.4375C22.5625 4.81875 22.9249 5.25625 23.3375 5.65625C23.6875 6 24.2062 6.4375 24.5 6.63125C24.7937 6.825 25.2 7.06875 25.4062 7.175C25.6124 7.275 26.0187 7.44375 26.3125 7.55C26.6062 7.65 27.0687 7.7875 27.3437 7.84375C27.6187 7.90625 28.1124 7.975 29.0312 8.03125L29.0625 13.1875H28.5C28.1937 13.1875 27.6374 13.1438 27.2687 13.0938C26.8937 13.0437 26.2437 12.9125 25.8125 12.8062C25.3812 12.7062 24.7625 12.5188 24.4375 12.3938C24.1124 12.275 23.5062 12.0063 23.0937 11.8C22.6812 11.5938 22.15 11.3 21.9062 11.1438C21.6625 10.9875 21.3624 10.7812 21.2374 10.6812C21.0687 10.55 20.9874 10.525 20.9625 10.5813C20.9375 10.6188 20.9312 13.4375 20.9375 16.8438C20.9562 22.5562 20.95 23.0812 20.85 23.6562C20.7875 24 20.6687 24.5187 20.5812 24.8125C20.5 25.1063 20.3312 25.575 20.2125 25.8563C20.0937 26.1438 19.9124 26.5375 19.7999 26.7313C19.6937 26.9313 19.4312 27.3438 19.225 27.6562C19.0125 27.9625 18.5625 28.5125 18.2187 28.8687C17.875 29.225 17.3 29.7438 16.9375 30.0125C16.5312 30.3188 15.9687 30.6562 15.4687 30.9062C15.025 31.125 14.3875 31.3875 14.0625 31.4875C13.7375 31.5938 13.2187 31.725 12.9062 31.7812C12.6 31.8375 12.1875 31.9062 12 31.9438C11.8125 31.975 11.35 32 10.9687 32C10.5937 32 10.125 31.975 9.93745 31.9438C9.74995 31.9062 9.3437 31.8375 9.0312 31.7812C8.72495 31.725 8.19995 31.5938 7.87495 31.4875C7.54995 31.3875 6.97495 31.15 6.5937 30.9688C6.2187 30.7875 5.63745 30.4562 5.31245 30.2437C4.92495 29.9812 4.43745 29.5625 3.89995 29.0312C3.32495 28.4562 2.9562 28.025 2.64995 27.5625C2.4062 27.2 2.0937 26.6688 1.9562 26.375C1.8187 26.0812 1.6187 25.6063 1.51245 25.3125C1.41245 25.0187 1.2687 24.5 1.1937 24.1562C1.1187 23.8125 1.0312 23.2062 0.999951 22.8125C0.974951 22.4125 0.974951 21.775 0.999951 21.375C1.0312 20.9813 1.09995 20.4312 1.1562 20.1562C1.21245 19.8813 1.3562 19.3625 1.47495 19C1.5937 18.6375 1.8187 18.0875 1.9687 17.7812C2.1187 17.475 2.41245 16.9625 2.6187 16.6562C2.82495 16.35 3.1812 15.875 3.4187 15.6062C3.64995 15.3438 4.0562 14.9375 4.31245 14.7125C4.5687 14.4875 5.03745 14.1312 5.3437 13.9187C5.6562 13.7125 6.2437 13.375 6.6562 13.1812C7.0687 12.9812 7.68745 12.7375 8.0312 12.6375C8.37495 12.5375 8.93745 12.4 9.2812 12.3438C9.6937 12.2688 10.2437 12.225 10.9062 12.225C11.4562 12.225 12.0375 12.2437 12.5 12.3125V14.9375C12.5 16.9937 12.4812 17.5625 12.425 17.5625C12.3812 17.5625 12.1312 17.5187 11.875 17.4625C11.5375 17.3937 11.2187 17.3687 10.75 17.3937C10.3312 17.4125 9.93745 17.475 9.6562 17.5625C9.4187 17.6375 8.9937 17.8125 8.7187 17.9562C8.33745 18.15 8.0812 18.35 7.64995 18.7812C7.1687 19.2563 7.03745 19.4375 6.7937 19.9375C6.6312 20.2625 6.44995 20.7125 6.3937 20.9375C6.3187 21.2188 6.28745 21.5812 6.28745 22.0938C6.28745 22.6187 6.3187 22.9688 6.39995 23.25C6.4562 23.475 6.6187 23.8813 6.74995 24.1562C6.8812 24.4312 7.1312 24.825 7.2937 25.0312C7.46245 25.2375 7.7812 25.5562 8.0062 25.7375C8.22495 25.9187 8.6312 26.175 8.9062 26.3125C9.1812 26.4438 9.58745 26.6063 9.81245 26.6625C10.0937 26.7375 10.4562 26.775 10.9687 26.775C11.4812 26.775 11.85 26.7438 12.125 26.6688C12.35 26.6125 12.7875 26.4375 13.0937 26.2875C13.4062 26.1313 13.8 25.8875 13.975 25.7375C14.15 25.5875 14.4375 25.3 14.6125 25.0938C14.7937 24.8875 15.0625 24.4625 15.2125 24.1562C15.3687 23.85 15.5375 23.3813 15.6 23.125C15.7 22.6938 15.7125 21.8 15.7375 11.325L15.7625 0Z" fill="white"/>
</svg>
