<svg width="53" height="26" viewBox="0 0 53 26" fill="none" xmlns="http://www.w3.org/2000/svg">
<mask id="mask0_5414_115198" style="mask-type:luminance" maskUnits="userSpaceOnUse" x="0" y="0" width="53" height="26">
<path d="M53 0.0212402H0V25.9789H53V0.0212402Z" fill="white"/>
</mask>
<g mask="url(#mask0_5414_115198)">
<path d="M52.9998 1.0209C52.9741 1.10607 52.9553 1.18092 52.9282 1.25383C52.1911 3.23728 51.4526 5.22007 50.7196 7.20481C50.6641 7.35579 50.6015 7.39902 50.4265 7.35966C49.401 7.1319 48.3735 6.91252 47.3446 6.69895C47.1848 6.66604 47.1507 6.60539 47.175 6.46279C47.537 4.37353 47.8955 2.28427 48.2498 0.19436C48.2741 0.050473 48.3103 -0.00372583 48.4833 0.0336976C49.9276 0.348571 51.3748 0.655056 52.8205 0.965413C52.8761 0.977027 52.9296 0.998319 52.9998 1.0209Z" fill="#00E8D0"/>
</g>
<mask id="mask1_5414_115198" style="mask-type:luminance" maskUnits="userSpaceOnUse" x="0" y="0" width="53" height="26">
<path d="M53 0.0212402H0V25.9789H53V0.0212402Z" fill="white"/>
</mask>
<g mask="url(#mask1_5414_115198)">
<path d="M50.3814 10.2339C50.38 11.4327 49.3483 12.3935 48.0617 12.3935C46.7701 12.3935 45.7169 11.4134 45.7266 10.2216C45.7371 9.02923 46.7799 8.07107 48.0651 8.073C49.3553 8.07558 50.3828 9.0344 50.3814 10.2339Z" fill="#00E8D0"/>
</g>
<mask id="mask2_5414_115198" style="mask-type:luminance" maskUnits="userSpaceOnUse" x="0" y="0" width="53" height="26">
<path d="M53 0.0212402H0V25.9789H53V0.0212402Z" fill="white"/>
</mask>
<g mask="url(#mask2_5414_115198)">
<path d="M5.70271 6.09321C5.73815 5.91384 5.76385 5.7364 5.80901 5.56348C6.05078 4.63241 6.64618 3.96524 7.60701 3.62584C8.95551 3.14837 10.3415 3.08449 11.7213 3.49615C12.9989 3.87748 13.7284 4.83178 13.7402 6.08224C13.7527 7.38948 13.7444 8.69672 13.7451 10.004C13.7451 10.3169 13.7868 10.355 14.1293 10.355C14.3565 10.355 14.5829 10.355 14.8261 10.355V12.3397C14.8171 12.3462 14.8066 12.3597 14.7962 12.3597C14.1056 12.3616 13.4144 12.3804 12.7252 12.3578C12.2132 12.341 11.9075 12.0539 11.7984 11.5706C11.7866 11.5712 11.7685 11.5674 11.763 11.5738C11.171 12.2326 10.3756 12.5197 9.49046 12.6075C8.65954 12.6901 7.83766 12.6268 7.05399 12.3262C5.70549 11.8087 5.149 10.7086 5.26363 9.49746C5.38035 8.27281 6.1932 7.28625 7.89046 6.98944C8.60327 6.86491 9.33901 6.85394 10.0643 6.79716C10.427 6.76877 10.791 6.75199 11.1697 6.72941C11.1926 6.40873 11.203 6.10289 11.0634 5.81253C10.9182 5.51057 10.6319 5.36216 10.3054 5.33893C9.92051 5.31183 9.52589 5.32087 9.14239 5.36539C8.76306 5.40991 8.51573 5.6351 8.41847 5.99256C8.40457 6.04288 8.32259 6.11321 8.27118 6.11386C7.44999 6.12096 6.6295 6.11838 5.80831 6.11708C5.784 6.11579 5.75899 6.10547 5.70271 6.09321ZM11.2044 8.63543C11.1176 8.63155 11.0786 8.6251 11.0404 8.62833C10.4061 8.67866 9.76975 8.71608 9.13753 8.7877C8.89229 8.81545 8.64079 8.89352 8.42125 9.00063C8.08222 9.16645 7.92312 9.45681 7.95994 9.81556C7.99746 10.1756 8.23575 10.415 8.5998 10.4885C8.93119 10.5556 9.28204 10.5821 9.62107 10.5647C10.3825 10.5247 10.9612 10.0846 11.1169 9.44197C11.1787 9.18645 11.1759 8.91739 11.2044 8.63543Z" fill="white"/>
</g>
<mask id="mask3_5414_115198" style="mask-type:luminance" maskUnits="userSpaceOnUse" x="0" y="0" width="53" height="26">
<path d="M53 0.0212402H0V25.9789H53V0.0212402Z" fill="white"/>
</mask>
<g mask="url(#mask3_5414_115198)">
<path d="M37.9315 8.84612C37.976 9.7288 38.6353 10.3811 39.5718 10.4998C39.9956 10.5534 40.4145 10.5566 40.8272 10.4347C41.1947 10.3263 41.4865 10.1288 41.6949 9.82365C41.7304 9.77138 41.8096 9.71331 41.8693 9.71267C42.7224 9.70621 43.5763 9.7088 44.4294 9.71009C44.4531 9.71009 44.4767 9.72235 44.5184 9.73396C44.5031 9.79074 44.494 9.84236 44.476 9.8914C43.9403 11.3619 42.851 12.2517 41.2114 12.542C40.3381 12.6969 39.4599 12.6853 38.5991 12.4594C37.1541 12.08 36.1404 11.2367 35.6173 9.9314C35.049 8.51512 35.0483 7.08076 35.7048 5.689C36.3544 4.31143 37.5362 3.54295 39.1244 3.3068C40.0268 3.17259 40.9203 3.22937 41.7838 3.50682C43.3811 4.02043 44.253 5.11281 44.5864 6.61491C44.7407 7.30853 44.7268 8.00925 44.6656 8.71127C44.6559 8.82483 44.599 8.84806 44.4899 8.84741C43.9688 8.84354 43.4478 8.84547 42.926 8.84547C41.3364 8.84547 39.7469 8.84547 38.1566 8.84547H37.9315V8.84612ZM41.9416 6.91881C42.0062 6.28455 41.6366 5.69545 41.0203 5.43284C40.5562 5.23475 40.0664 5.21153 39.569 5.2696C39.1667 5.3167 38.8013 5.45155 38.4977 5.70771C38.1184 6.02839 37.9398 6.43489 37.8995 6.91881H41.9416Z" fill="white"/>
</g>
<mask id="mask4_5414_115198" style="mask-type:luminance" maskUnits="userSpaceOnUse" x="0" y="0" width="53" height="26">
<path d="M53 0.0212402H0V25.9789H53V0.0212402Z" fill="white"/>
</mask>
<g mask="url(#mask4_5414_115198)">
<path d="M24.5641 12.3568H21.8574V12.1155C21.8574 10.4998 21.8622 8.88415 21.8525 7.26848C21.8511 7.01168 21.8129 6.74843 21.7434 6.50001C21.5864 5.93414 21.1647 5.61991 20.5513 5.54894C20.1101 5.49797 19.6655 5.52055 19.2389 5.6554C19.0985 5.69992 18.961 5.76122 18.8339 5.8322C18.5872 5.96963 18.4559 6.14384 18.4587 6.4471C18.4774 8.34086 18.4684 10.2353 18.4677 12.129C18.4677 12.3678 18.467 12.3678 18.2162 12.3678C17.4478 12.3678 16.6788 12.3645 15.9104 12.371C15.7652 12.3723 15.7207 12.3329 15.7207 12.1968C15.7242 9.35904 15.7242 6.52066 15.7214 3.68293C15.7214 3.5584 15.7596 3.51388 15.8979 3.51517C16.6989 3.52033 17.5006 3.51968 18.3017 3.51581C18.4302 3.51517 18.4768 3.55646 18.4698 3.67389C18.4622 3.79197 18.4684 3.91069 18.4684 4.06684C18.8582 3.7539 19.2576 3.53452 19.7078 3.40096C21.0452 3.00479 23.0162 3.32676 23.9368 4.68433C24.3314 5.26697 24.5544 5.90833 24.5634 6.58647C24.5884 8.48023 24.5759 10.3746 24.578 12.2684C24.5766 12.2916 24.5704 12.3155 24.5641 12.3568Z" fill="white"/>
</g>
<mask id="mask5_5414_115198" style="mask-type:luminance" maskUnits="userSpaceOnUse" x="0" y="0" width="53" height="26">
<path d="M53 0.0212402H0V25.9789H53V0.0212402Z" fill="white"/>
</mask>
<g mask="url(#mask5_5414_115198)">
<path d="M34.5866 9.0957C34.5227 9.72415 34.299 10.2913 33.9273 10.8049C33.1777 11.8418 32.1078 12.4051 30.7933 12.5819C29.9853 12.6909 29.1815 12.6535 28.3978 12.4251C27.214 12.0793 26.3122 11.4005 25.787 10.3552C24.9623 8.71566 24.9693 7.05805 25.8752 5.45013C26.5714 4.21451 27.7364 3.53573 29.2031 3.31442C30.3827 3.13633 31.5318 3.24731 32.5955 3.78802C33.7661 4.38292 34.4067 5.31657 34.5477 6.54768C34.5498 6.5651 34.5443 6.58316 34.5401 6.61672C34.4852 6.62059 34.4282 6.62898 34.372 6.62898C33.5772 6.62962 32.7824 6.62897 31.9883 6.63026C31.8945 6.63026 31.8188 6.6322 31.7785 6.52122C31.545 5.87857 31.0129 5.59725 30.3272 5.53982C29.046 5.43271 28.3117 6.15989 28.0929 7.2013C27.9518 7.8704 27.9727 8.53886 28.245 9.1828C28.7292 10.3274 29.9263 10.5449 30.8461 10.2261C31.3491 10.0519 31.6666 9.70544 31.8125 9.22668C31.8389 9.14022 31.8556 9.07183 31.9827 9.07247C32.8164 9.07699 33.6501 9.07505 34.4838 9.0757C34.513 9.07699 34.5436 9.08795 34.5866 9.0957Z" fill="white"/>
</g>
<mask id="mask6_5414_115198" style="mask-type:luminance" maskUnits="userSpaceOnUse" x="0" y="0" width="53" height="26">
<path d="M53 0.0212402H0V25.9789H53V0.0212402Z" fill="white"/>
</mask>
<g mask="url(#mask6_5414_115198)">
<path d="M4.48257 10.0996V12.3508C4.42769 12.3566 4.37836 12.3669 4.32903 12.3669C3.54744 12.3676 2.76516 12.3747 1.98427 12.3618C1.73347 12.3573 1.4785 12.316 1.23395 12.2605C0.534337 12.1011 0.158481 11.661 0.0445425 11.0158C0.0160579 10.8558 0.0021598 10.6913 0.0021598 10.5287C-0.000619183 7.71481 7.77666e-05 4.90095 7.77666e-05 2.08709V1.90771H2.79712V2.13806V9.41757C2.79712 9.47823 2.79434 9.53888 2.79851 9.59889C2.81935 9.93763 2.98748 10.0918 3.355 10.0983C3.66138 10.1035 3.96777 10.0996 4.27345 10.1002C4.33737 10.0996 4.40129 10.0996 4.48257 10.0996Z" fill="white"/>
</g>
<path d="M3.06591 20.0994L3.69465 16.8171L3.92461 16.8132L4.55336 20.1323L3.06591 20.0994ZM1.77785 15.1472L0 23.0636L2.46774 23.21L2.74355 21.7783L4.87433 21.8679L5.15014 23.37L7.61788 23.5165L5.87059 14.9917L1.77785 15.1472Z" fill="#00E8D0"/>
<mask id="mask7_5414_115198" style="mask-type:luminance" maskUnits="userSpaceOnUse" x="0" y="0" width="53" height="26">
<path d="M53 0.0212402H0V25.9789H53V0.0212402Z" fill="white"/>
</mask>
<g mask="url(#mask7_5414_115198)">
<path d="M14.9542 20.0997V22.0328C14.9542 22.9923 14.5248 23.9259 13.0075 23.8363L10.1257 23.6653C8.86889 23.5904 8.14844 22.9762 8.14844 21.7928V16.5006C8.14844 15.3302 8.89946 14.8759 10.0187 14.8333L13.0228 14.7185C14.4942 14.6623 14.9542 15.3605 14.9542 16.678V18.0524L12.5323 18.0582V16.7322L10.5856 16.7651V21.7522L12.5323 21.8264V20.0539L14.9542 20.0997Z" fill="#00E8D0"/>
</g>
<path d="M15.7373 14.6143L21.669 14.3872V16.5029L18.1898 16.5636V18.3102L20.7339 18.3109V20.3917L18.1898 20.3388V22.1003L21.669 22.2352V24.3502L15.7373 23.9979V14.6143Z" fill="#00E8D0"/>
<mask id="mask8_5414_115198" style="mask-type:luminance" maskUnits="userSpaceOnUse" x="0" y="0" width="53" height="26">
<path d="M53 0.0212402H0V25.9789H53V0.0212402Z" fill="white"/>
</mask>
<g mask="url(#mask8_5414_115198)">
<path d="M26.8243 19.4554V16.4925L24.8623 16.5254V19.4341L26.8243 19.4554ZM22.4092 24.394V14.3593L27.8199 14.1529C28.8467 14.1135 29.2302 14.7407 29.2302 16.1402V19.6464C29.2302 20.7826 28.9697 21.3679 28.3256 21.5453L29.2608 24.8011L26.8236 24.6566L25.9961 21.6518L24.8616 21.6156V24.5398L22.4092 24.394Z" fill="#00E8D0"/>
</g>
<path d="M32.1001 16.3707L29.8623 16.4088V14.0744L36.791 13.8098V16.2907L34.5525 16.3288V25.1149L32.1001 24.9698V16.3707Z" fill="#00E8D0"/>
<path d="M37.4561 13.7845L43.3878 13.5574V16.1228L39.9085 16.1835V18.3153L42.4527 18.316V20.8427L39.9085 20.7898V22.9397L43.3878 23.0745V25.6393L37.4561 25.287V13.7845Z" fill="#00E8D0"/>
<path d="M48.5719 20.6792L46.5183 20.6411V23.1375L48.5719 23.2162V20.6792ZM44.127 23.2149V15.7728C44.127 14.1275 44.878 13.5003 45.9972 13.4577L50.3505 13.2913V16.0793L46.5183 16.1438V18.1066L49.2465 18.1028C50.5339 18.1008 50.9327 19.1061 50.9327 20.7624V23.4446C50.9327 24.7461 50.488 26.0611 49.0319 25.9746L46.1042 25.801C44.8474 25.7262 44.127 24.879 44.127 23.2149Z" fill="#00E8D0"/>
<mask id="mask9_5414_115198" style="mask-type:alpha" maskUnits="userSpaceOnUse" x="0" y="0" width="53" height="26">
<mask id="mask10_5414_115198" style="mask-type:luminance" maskUnits="userSpaceOnUse" x="0" y="0" width="53" height="26">
<path d="M53 0.0212402H0V25.9789H53V0.0212402Z" fill="white"/>
</mask>
<g mask="url(#mask10_5414_115198)">
<path d="M52.9998 1.0209C52.9741 1.10607 52.9553 1.18092 52.9282 1.25383C52.1911 3.23728 51.4526 5.22007 50.7196 7.20481C50.6641 7.35579 50.6015 7.39902 50.4265 7.35966C49.401 7.1319 48.3735 6.91252 47.3446 6.69895C47.1848 6.66604 47.1507 6.60539 47.175 6.46279C47.537 4.37353 47.8955 2.28427 48.2498 0.19436C48.2741 0.050473 48.3103 -0.00372583 48.4833 0.0336976C49.9276 0.348571 51.3748 0.655056 52.8205 0.965413C52.8761 0.977027 52.9296 0.998319 52.9998 1.0209Z" fill="#00E8D0"/>
</g>
<mask id="mask11_5414_115198" style="mask-type:luminance" maskUnits="userSpaceOnUse" x="0" y="0" width="53" height="26">
<path d="M53 0.0212402H0V25.9789H53V0.0212402Z" fill="white"/>
</mask>
<g mask="url(#mask11_5414_115198)">
<path d="M50.3814 10.2339C50.38 11.4327 49.3483 12.3935 48.0617 12.3935C46.7701 12.3935 45.7169 11.4134 45.7266 10.2216C45.7371 9.02923 46.7799 8.07107 48.0651 8.073C49.3553 8.07558 50.3828 9.0344 50.3814 10.2339Z" fill="#00E8D0"/>
</g>
<mask id="mask12_5414_115198" style="mask-type:luminance" maskUnits="userSpaceOnUse" x="0" y="0" width="53" height="26">
<path d="M53 0.0212402H0V25.9789H53V0.0212402Z" fill="white"/>
</mask>
<g mask="url(#mask12_5414_115198)">
<path d="M5.70271 6.09321C5.73815 5.91384 5.76385 5.7364 5.80901 5.56348C6.05078 4.63241 6.64618 3.96524 7.60701 3.62584C8.95551 3.14837 10.3415 3.08449 11.7213 3.49615C12.9989 3.87748 13.7284 4.83178 13.7402 6.08224C13.7527 7.38948 13.7444 8.69672 13.7451 10.004C13.7451 10.3169 13.7868 10.355 14.1293 10.355C14.3565 10.355 14.5829 10.355 14.8261 10.355V12.3397C14.8171 12.3462 14.8066 12.3597 14.7962 12.3597C14.1056 12.3616 13.4144 12.3804 12.7252 12.3578C12.2132 12.341 11.9075 12.0539 11.7984 11.5706C11.7866 11.5712 11.7685 11.5674 11.763 11.5738C11.171 12.2326 10.3756 12.5197 9.49046 12.6075C8.65954 12.6901 7.83766 12.6268 7.05399 12.3262C5.70549 11.8087 5.149 10.7086 5.26363 9.49746C5.38035 8.27281 6.1932 7.28625 7.89046 6.98944C8.60327 6.86491 9.33901 6.85394 10.0643 6.79716C10.427 6.76877 10.791 6.75199 11.1697 6.72941C11.1926 6.40873 11.203 6.10289 11.0634 5.81253C10.9182 5.51057 10.6319 5.36216 10.3054 5.33893C9.92051 5.31183 9.52589 5.32087 9.14239 5.36539C8.76306 5.40991 8.51573 5.6351 8.41847 5.99256C8.40457 6.04288 8.32259 6.11321 8.27118 6.11386C7.44999 6.12096 6.6295 6.11838 5.80831 6.11708C5.784 6.11579 5.75899 6.10547 5.70271 6.09321ZM11.2044 8.63543C11.1176 8.63155 11.0786 8.6251 11.0404 8.62833C10.4061 8.67866 9.76975 8.71608 9.13753 8.7877C8.89229 8.81545 8.64079 8.89352 8.42125 9.00063C8.08222 9.16645 7.92312 9.45681 7.95994 9.81556C7.99746 10.1756 8.23575 10.415 8.5998 10.4885C8.93119 10.5556 9.28204 10.5821 9.62107 10.5647C10.3825 10.5247 10.9612 10.0846 11.1169 9.44197C11.1787 9.18645 11.1759 8.91739 11.2044 8.63543Z" fill="white"/>
</g>
<mask id="mask13_5414_115198" style="mask-type:luminance" maskUnits="userSpaceOnUse" x="0" y="0" width="53" height="26">
<path d="M53 0.0212402H0V25.9789H53V0.0212402Z" fill="white"/>
</mask>
<g mask="url(#mask13_5414_115198)">
<path d="M37.9315 8.84612C37.976 9.7288 38.6353 10.3811 39.5718 10.4998C39.9956 10.5534 40.4145 10.5566 40.8272 10.4347C41.1947 10.3263 41.4865 10.1288 41.6949 9.82365C41.7304 9.77138 41.8096 9.71331 41.8693 9.71267C42.7224 9.70621 43.5763 9.7088 44.4294 9.71009C44.4531 9.71009 44.4767 9.72235 44.5184 9.73396C44.5031 9.79074 44.494 9.84236 44.476 9.8914C43.9403 11.3619 42.851 12.2517 41.2114 12.542C40.3381 12.6969 39.4599 12.6853 38.5991 12.4594C37.1541 12.08 36.1404 11.2367 35.6173 9.9314C35.049 8.51512 35.0483 7.08076 35.7048 5.689C36.3544 4.31143 37.5362 3.54295 39.1244 3.3068C40.0268 3.17259 40.9203 3.22937 41.7838 3.50682C43.3811 4.02043 44.253 5.11281 44.5864 6.61491C44.7407 7.30853 44.7268 8.00925 44.6656 8.71127C44.6559 8.82483 44.599 8.84806 44.4899 8.84741C43.9688 8.84354 43.4478 8.84547 42.926 8.84547C41.3364 8.84547 39.7469 8.84547 38.1566 8.84547H37.9315V8.84612ZM41.9416 6.91881C42.0062 6.28455 41.6366 5.69545 41.0203 5.43284C40.5562 5.23475 40.0664 5.21153 39.569 5.2696C39.1667 5.3167 38.8013 5.45155 38.4977 5.70771C38.1184 6.02839 37.9398 6.43489 37.8995 6.91881H41.9416Z" fill="white"/>
</g>
<mask id="mask14_5414_115198" style="mask-type:luminance" maskUnits="userSpaceOnUse" x="0" y="0" width="53" height="26">
<path d="M53 0.0212402H0V25.9789H53V0.0212402Z" fill="white"/>
</mask>
<g mask="url(#mask14_5414_115198)">
<path d="M24.5641 12.3568H21.8574V12.1155C21.8574 10.4998 21.8622 8.88415 21.8525 7.26848C21.8511 7.01168 21.8129 6.74843 21.7434 6.50001C21.5864 5.93414 21.1647 5.61991 20.5513 5.54894C20.1101 5.49797 19.6655 5.52055 19.2389 5.6554C19.0985 5.69992 18.961 5.76122 18.8339 5.8322C18.5872 5.96963 18.4559 6.14384 18.4587 6.4471C18.4774 8.34086 18.4684 10.2353 18.4677 12.129C18.4677 12.3678 18.467 12.3678 18.2162 12.3678C17.4478 12.3678 16.6788 12.3645 15.9104 12.371C15.7652 12.3723 15.7207 12.3329 15.7207 12.1968C15.7242 9.35904 15.7242 6.52066 15.7214 3.68293C15.7214 3.5584 15.7596 3.51388 15.8979 3.51517C16.6989 3.52033 17.5006 3.51968 18.3017 3.51581C18.4302 3.51517 18.4768 3.55646 18.4698 3.67389C18.4622 3.79197 18.4684 3.91069 18.4684 4.06684C18.8582 3.7539 19.2576 3.53452 19.7078 3.40096C21.0452 3.00479 23.0162 3.32676 23.9368 4.68433C24.3314 5.26697 24.5544 5.90833 24.5634 6.58647C24.5884 8.48023 24.5759 10.3746 24.578 12.2684C24.5766 12.2916 24.5704 12.3155 24.5641 12.3568Z" fill="white"/>
</g>
<mask id="mask15_5414_115198" style="mask-type:luminance" maskUnits="userSpaceOnUse" x="0" y="0" width="53" height="26">
<path d="M53 0.0212402H0V25.9789H53V0.0212402Z" fill="white"/>
</mask>
<g mask="url(#mask15_5414_115198)">
<path d="M34.5866 9.0957C34.5227 9.72415 34.299 10.2913 33.9273 10.8049C33.1777 11.8418 32.1078 12.4051 30.7933 12.5819C29.9853 12.6909 29.1815 12.6535 28.3978 12.4251C27.214 12.0793 26.3122 11.4005 25.787 10.3552C24.9623 8.71566 24.9693 7.05805 25.8752 5.45013C26.5714 4.21451 27.7364 3.53573 29.2031 3.31442C30.3827 3.13633 31.5318 3.24731 32.5955 3.78802C33.7661 4.38292 34.4067 5.31657 34.5477 6.54768C34.5498 6.5651 34.5443 6.58316 34.5401 6.61672C34.4852 6.62059 34.4282 6.62898 34.372 6.62898C33.5772 6.62962 32.7824 6.62897 31.9883 6.63026C31.8945 6.63026 31.8188 6.6322 31.7785 6.52122C31.545 5.87857 31.0129 5.59725 30.3272 5.53982C29.046 5.43271 28.3117 6.15989 28.0929 7.2013C27.9518 7.8704 27.9727 8.53886 28.245 9.1828C28.7292 10.3274 29.9263 10.5449 30.8461 10.2261C31.3491 10.0519 31.6666 9.70544 31.8125 9.22668C31.8389 9.14022 31.8556 9.07183 31.9827 9.07247C32.8164 9.07699 33.6501 9.07505 34.4838 9.0757C34.513 9.07699 34.5436 9.08795 34.5866 9.0957Z" fill="white"/>
</g>
<mask id="mask16_5414_115198" style="mask-type:luminance" maskUnits="userSpaceOnUse" x="0" y="0" width="53" height="26">
<path d="M53 0.0212402H0V25.9789H53V0.0212402Z" fill="white"/>
</mask>
<g mask="url(#mask16_5414_115198)">
<path d="M4.48257 10.0996V12.3508C4.42769 12.3566 4.37836 12.3669 4.32903 12.3669C3.54744 12.3676 2.76516 12.3747 1.98427 12.3618C1.73347 12.3573 1.4785 12.316 1.23395 12.2605C0.534337 12.1011 0.158481 11.661 0.0445425 11.0158C0.0160579 10.8558 0.0021598 10.6913 0.0021598 10.5287C-0.000619183 7.71481 7.77666e-05 4.90095 7.77666e-05 2.08709V1.90771H2.79712V2.13806V9.41757C2.79712 9.47823 2.79434 9.53888 2.79851 9.59889C2.81935 9.93763 2.98748 10.0918 3.355 10.0983C3.66138 10.1035 3.96777 10.0996 4.27345 10.1002C4.33737 10.0996 4.40129 10.0996 4.48257 10.0996Z" fill="white"/>
</g>
<path d="M3.06591 20.0994L3.69465 16.8171L3.92461 16.8132L4.55336 20.1323L3.06591 20.0994ZM1.77785 15.1472L0 23.0636L2.46774 23.21L2.74355 21.7783L4.87433 21.8679L5.15014 23.37L7.61788 23.5165L5.87059 14.9917L1.77785 15.1472Z" fill="#00E8D0"/>
<mask id="mask17_5414_115198" style="mask-type:luminance" maskUnits="userSpaceOnUse" x="0" y="0" width="53" height="26">
<path d="M53 0.0212402H0V25.9789H53V0.0212402Z" fill="white"/>
</mask>
<g mask="url(#mask17_5414_115198)">
<path d="M14.9542 20.0997V22.0328C14.9542 22.9923 14.5248 23.9259 13.0075 23.8363L10.1257 23.6653C8.86889 23.5904 8.14844 22.9762 8.14844 21.7928V16.5006C8.14844 15.3302 8.89946 14.8759 10.0187 14.8333L13.0228 14.7185C14.4942 14.6623 14.9542 15.3605 14.9542 16.678V18.0524L12.5323 18.0582V16.7322L10.5856 16.7651V21.7522L12.5323 21.8264V20.0539L14.9542 20.0997Z" fill="#00E8D0"/>
</g>
<path d="M15.7373 14.6143L21.669 14.3872V16.5029L18.1898 16.5636V18.3102L20.7339 18.3109V20.3917L18.1898 20.3388V22.1003L21.669 22.2352V24.3502L15.7373 23.9979V14.6143Z" fill="#00E8D0"/>
<mask id="mask18_5414_115198" style="mask-type:luminance" maskUnits="userSpaceOnUse" x="0" y="0" width="53" height="26">
<path d="M53 0.0212402H0V25.9789H53V0.0212402Z" fill="white"/>
</mask>
<g mask="url(#mask18_5414_115198)">
<path d="M26.8243 19.4554V16.4925L24.8623 16.5254V19.4341L26.8243 19.4554ZM22.4092 24.394V14.3593L27.8199 14.1529C28.8467 14.1135 29.2302 14.7407 29.2302 16.1402V19.6464C29.2302 20.7826 28.9697 21.3679 28.3256 21.5453L29.2608 24.8011L26.8236 24.6566L25.9961 21.6518L24.8616 21.6156V24.5398L22.4092 24.394Z" fill="#00E8D0"/>
</g>
<path d="M32.1001 16.3707L29.8623 16.4088V14.0744L36.791 13.8098V16.2907L34.5525 16.3288V25.1149L32.1001 24.9698V16.3707Z" fill="#00E8D0"/>
<path d="M37.4561 13.7845L43.3878 13.5574V16.1228L39.9085 16.1835V18.3153L42.4527 18.316V20.8427L39.9085 20.7898V22.9397L43.3878 23.0745V25.6393L37.4561 25.287V13.7845Z" fill="#00E8D0"/>
<path d="M48.5719 20.6792L46.5183 20.6411V23.1375L48.5719 23.2162V20.6792ZM44.127 23.2149V15.7728C44.127 14.1275 44.878 13.5003 45.9972 13.4577L50.3505 13.2913V16.0793L46.5183 16.1438V18.1066L49.2465 18.1028C50.5339 18.1008 50.9327 19.1061 50.9327 20.7624V23.4446C50.9327 24.7461 50.488 26.0611 49.0319 25.9746L46.1042 25.801C44.8474 25.7262 44.127 24.879 44.127 23.2149Z" fill="#00E8D0"/>
</mask>
<g mask="url(#mask9_5414_115198)">
<rect x="-1.56836" y="0.0212402" width="46.2671" height="13.3312" fill="#06379D"/>
</g>
</svg>
