<svg width="32" height="26" viewBox="0 0 32 26" fill="none" xmlns="http://www.w3.org/2000/svg">
<path d="M22.0938 0.00629187C22.5626 4.18723e-05 23.0438 0.0375419 23.3751 0.100042C23.6688 0.156292 24.1001 0.268792 24.3438 0.356292C24.5876 0.443792 24.9626 0.606292 25.1876 0.718792C25.4126 0.831292 25.8188 1.09379 26.0938 1.29379C26.3688 1.50004 26.6688 1.75004 26.9376 2.03129L27.5438 1.89379C27.8813 1.81254 28.4501 1.65004 28.8126 1.51879C29.1751 1.39379 29.8188 1.11254 30.2501 0.900042C30.6813 0.687542 31.0501 0.525042 31.0813 0.537542C31.1063 0.550042 31.0563 0.737542 30.9688 0.950042C30.8813 1.16879 30.7126 1.51254 30.6001 1.71879C30.4813 1.92504 30.2251 2.30629 30.0188 2.56254C29.8126 2.81879 29.4938 3.16879 29.3063 3.33754C29.1188 3.50629 28.8313 3.73754 28.3438 4.06879L28.5938 4.03129C28.7313 4.00629 29.1688 3.91879 29.5626 3.83129C29.9563 3.74379 30.6313 3.55004 31.0626 3.40004C31.4938 3.25004 31.8626 3.15004 31.8938 3.17504C31.9188 3.20004 31.7626 3.45629 31.5438 3.75004C31.3251 4.04379 30.8688 4.57504 30.5251 4.93129C30.1876 5.28754 29.6501 5.78129 28.7751 6.46879L28.7376 7.78129C28.7126 8.56879 28.6438 9.41879 28.5688 9.90629C28.5001 10.3563 28.4001 10.9313 28.3438 11.1875C28.2938 11.4438 28.1376 12.0375 28.0063 12.5C27.8688 12.9625 27.6126 13.725 27.4313 14.1875C27.2501 14.65 26.9063 15.425 26.6563 15.9063C26.4126 16.3875 26.0313 17.075 25.8126 17.425C25.5876 17.7813 25.1376 18.4313 24.8126 18.8625C24.4876 19.3 23.8251 20.0625 23.3438 20.5563C22.8626 21.05 22.1438 21.7125 21.7501 22.0313C21.3563 22.35 20.7751 22.7813 20.4688 22.9813C20.1626 23.1875 19.6813 23.4875 19.4063 23.6438C19.1313 23.8 18.5813 24.0813 18.1876 24.2688C17.7938 24.4563 17.1001 24.7438 16.6563 24.9063C16.2126 25.0688 15.4813 25.2938 15.0313 25.4063C14.5813 25.5188 13.8688 25.675 13.4376 25.7438C13.0063 25.8125 12.3501 25.9 11.9688 25.9375C11.5876 25.9688 10.7188 26 10.0313 26C9.32506 26 8.43756 25.9563 8.00006 25.9063C7.56881 25.8563 6.92506 25.7625 6.56256 25.6938C6.20006 25.625 5.68131 25.5125 5.40631 25.4375C5.13131 25.3625 4.59381 25.2063 4.21881 25.0813C3.84381 24.9563 3.29381 24.7625 3.00006 24.6375C2.70631 24.5188 2.18756 24.2813 1.84381 24.1125C1.50006 23.9438 0.987557 23.6688 0.706307 23.5125C0.418807 23.35 0.193807 23.1938 0.206307 23.1625C0.212557 23.1313 0.793807 23.1 1.50006 23.0938C2.26881 23.0813 3.04381 23.0375 3.43756 22.9813C3.80006 22.925 4.41881 22.8 4.81256 22.7C5.20631 22.6 5.81256 22.4125 6.15631 22.2813C6.50006 22.15 7.09381 21.8938 7.46881 21.7063C7.84381 21.5125 8.48131 21.1438 9.59381 20.4125L8.90631 20.3C8.52506 20.2375 8.00631 20.1125 7.75006 20.025C7.49381 19.9313 7.11256 19.775 6.90631 19.675C6.70006 19.5688 6.35006 19.3625 6.12506 19.2188C5.90006 19.0688 5.53131 18.7688 5.30631 18.55C5.08131 18.3375 4.77506 18 4.63131 17.8125C4.48131 17.625 4.25631 17.2875 4.13131 17.0625C4.00006 16.8375 3.81256 16.4688 3.71256 16.2375C3.61256 16.0063 3.54381 15.8 3.56256 15.7813C3.58131 15.7625 3.81881 15.7813 4.09381 15.8188C4.36881 15.8563 4.83131 15.8688 5.12506 15.8438C5.41881 15.825 5.82506 15.775 6.40631 15.6688L5.98756 15.55C5.75006 15.4875 5.37506 15.35 5.14381 15.2438C4.90631 15.1375 4.48131 14.8938 4.18756 14.7063C3.89381 14.5125 3.45631 14.1563 3.21256 13.9125C2.97506 13.6688 2.64381 13.2875 2.48756 13.0625C2.33131 12.8375 2.08756 12.4313 1.95006 12.1563C1.81256 11.8813 1.64381 11.475 1.57506 11.25C1.50006 11.025 1.40006 10.5875 1.34381 10.2813C1.29381 9.97504 1.25006 9.60629 1.25006 9.46879C1.25006 9.33129 1.26881 9.20004 1.29381 9.17504C1.31881 9.15004 1.50006 9.20629 1.68756 9.30629C1.87506 9.40004 2.21256 9.54379 2.43756 9.61254C2.66256 9.68129 3.00006 9.76879 3.18756 9.80629C3.37506 9.83754 3.67506 9.88129 4.15631 9.94379L3.96881 9.80629C3.86881 9.73129 3.52506 9.41254 3.21881 9.10004C2.90631 8.78754 2.54381 8.36879 2.41881 8.16879C2.29381 7.97504 2.10006 7.63754 1.99381 7.41879C1.88131 7.20629 1.73131 6.85004 1.65631 6.62504C1.58131 6.40004 1.46881 5.92504 1.40631 5.56254C1.32506 5.07504 1.30631 4.72504 1.33131 4.21879C1.35006 3.83754 1.41256 3.35004 1.46256 3.12504C1.51256 2.90004 1.62506 2.51879 1.70631 2.28129C1.78756 2.03754 1.93131 1.69379 2.02506 1.51254C2.11256 1.33754 2.20631 1.18754 2.23756 1.18754C2.26256 1.18754 2.40006 1.33754 2.54381 1.51254C2.68756 1.69379 3.19381 2.22504 3.66881 2.69379C4.14381 3.15629 4.80006 3.75004 5.12506 4.00629C5.45006 4.26254 5.93131 4.61879 6.18756 4.79379C6.44381 4.96879 6.81881 5.21254 7.01881 5.33754C7.21256 5.46254 7.69381 5.73129 8.08131 5.93754C8.46256 6.13754 9.06256 6.42504 9.40631 6.56879C9.75006 6.70629 10.2126 6.89379 10.4376 6.97504C10.6626 7.05629 11.1813 7.21879 11.5938 7.33129C12.0063 7.45004 12.6376 7.60629 13.0001 7.68129C13.3626 7.75004 13.9876 7.85004 14.3938 7.90629C14.7938 7.95629 15.2563 8.00004 15.7188 8.00004L15.6688 7.70629C15.6438 7.53754 15.6063 7.19379 15.5813 6.93754C15.5626 6.68129 15.5813 6.18754 15.6251 5.84379C15.6626 5.50004 15.7688 4.98754 15.8501 4.70004C15.9313 4.41879 16.1001 3.98129 16.2188 3.73129C16.3376 3.48754 16.5501 3.10004 16.7001 2.87504C16.8501 2.65004 17.1376 2.28754 17.3438 2.06879C17.5501 1.85004 17.9438 1.50004 18.2188 1.29379C18.4938 1.08754 18.9063 0.825042 19.1438 0.712542C19.3751 0.593792 19.7126 0.443792 19.8876 0.381292C20.0688 0.312542 20.3876 0.212542 20.5938 0.162542C20.8001 0.112542 21.0563 0.056292 21.1563 0.043792C21.2563 0.031292 21.6813 0.0125419 22.0938 0.00629187Z" fill="white"/>
</svg>
