<svg width="28" height="28" viewBox="0 0 28 28" fill="none" xmlns="http://www.w3.org/2000/svg">
<path d="M13.4168 25.3749C6.82516 25.3749 1.4585 20.0083 1.4585 13.4166C1.4585 6.82492 6.82516 1.45825 13.4168 1.45825C20.0085 1.45825 25.3752 6.82492 25.3752 13.4166C25.3752 20.0083 20.0085 25.3749 13.4168 25.3749ZM13.4168 3.20825C7.78183 3.20825 3.2085 7.79325 3.2085 13.4166C3.2085 19.0399 7.78183 23.6249 13.4168 23.6249C19.0518 23.6249 23.6252 19.0399 23.6252 13.4166C23.6252 7.79325 19.0518 3.20825 13.4168 3.20825Z" fill="#FFFFFF"/>
<path d="M25.6673 26.5416C25.4457 26.5416 25.224 26.4599 25.049 26.2849L22.7157 23.9516C22.3773 23.6133 22.3773 23.0533 22.7157 22.7149C23.054 22.3766 23.614 22.3766 23.9523 22.7149L26.2857 25.0483C26.624 25.3866 26.624 25.9466 26.2857 26.2849C26.1107 26.4599 25.889 26.5416 25.6673 26.5416Z" fill="#FFFFFF"/>
</svg>
