<svg width="150" height="16" viewBox="0 0 150 16" fill="none" xmlns="http://www.w3.org/2000/svg">
<path d="M9.41016 12.7148V15H2.25195V12.7148H9.41016ZM3.19922 0.78125V15H0.269531V0.78125H3.19922ZM17.0664 3.21289L13.1992 15H10.084L15.3672 0.78125H17.3496L17.0664 3.21289ZM20.2793 15L16.4023 3.21289L16.0898 0.78125H18.0918L23.4043 15H20.2793ZM20.1035 9.70703V12.002H12.5938V9.70703H20.1035ZM36.2949 0.78125V15H33.3652L27.6523 5.46875V15H24.7227V0.78125H27.6523L33.375 10.3223V0.78125H36.2949ZM47.0859 10.2832H50.0059C49.9473 11.2402 49.6836 12.0898 49.2148 12.832C48.7526 13.5742 48.1048 14.1536 47.2715 14.5703C46.4447 14.987 45.4486 15.1953 44.2832 15.1953C43.3717 15.1953 42.5547 15.0391 41.832 14.7266C41.1094 14.4076 40.4909 13.9518 39.9766 13.3594C39.4688 12.7669 39.0814 12.0508 38.8145 11.2109C38.5475 10.3711 38.4141 9.43034 38.4141 8.38867V7.40234C38.4141 6.36068 38.5508 5.41992 38.8242 4.58008C39.1042 3.73372 39.5013 3.01432 40.0156 2.42188C40.5365 1.82943 41.1582 1.3737 41.8809 1.05469C42.6035 0.735677 43.4108 0.576172 44.3027 0.576172C45.4876 0.576172 46.487 0.791016 47.3008 1.2207C48.1211 1.65039 48.7559 2.24284 49.2051 2.99805C49.6608 3.75326 49.9342 4.61263 50.0254 5.57617H47.0957C47.0632 5.00326 46.9492 4.51823 46.7539 4.12109C46.5586 3.71745 46.2624 3.41471 45.8652 3.21289C45.4746 3.00456 44.9538 2.90039 44.3027 2.90039C43.8145 2.90039 43.388 2.99154 43.0234 3.17383C42.6589 3.35612 42.3529 3.63281 42.1055 4.00391C41.8581 4.375 41.6725 4.84375 41.5488 5.41016C41.4316 5.97005 41.373 6.6276 41.373 7.38281V8.38867C41.373 9.12435 41.4284 9.77214 41.5391 10.332C41.6497 10.8854 41.819 11.3542 42.0469 11.7383C42.2812 12.1159 42.5807 12.4023 42.9453 12.5977C43.3164 12.7865 43.7624 12.8809 44.2832 12.8809C44.8952 12.8809 45.3997 12.7832 45.7969 12.5879C46.194 12.3926 46.4967 12.1029 46.7051 11.7188C46.9199 11.3346 47.0469 10.8561 47.0859 10.2832ZM61.4707 12.7148V15H53.9023V12.7148H61.4707ZM54.8594 0.78125V15H51.9297V0.78125H54.8594ZM60.4844 6.57227V8.79883H53.9023V6.57227H60.4844ZM61.4609 0.78125V3.07617H53.9023V0.78125H61.4609ZM66.1777 0.78125L65.8555 10.6543H63.5117L63.1797 0.78125H66.1777ZM63.1016 13.7109C63.1016 13.2943 63.2448 12.9492 63.5312 12.6758C63.8242 12.3958 64.2083 12.2559 64.6836 12.2559C65.1654 12.2559 65.5495 12.3958 65.8359 12.6758C66.1224 12.9492 66.2656 13.2943 66.2656 13.7109C66.2656 14.1146 66.1224 14.4564 65.8359 14.7363C65.5495 15.0163 65.1654 15.1562 64.6836 15.1562C64.2083 15.1562 63.8242 15.0163 63.5312 14.7363C63.2448 14.4564 63.1016 14.1146 63.1016 13.7109ZM74.1562 8.75977H70.5039L70.4844 6.74805H73.5508C74.0911 6.74805 74.5339 6.67969 74.8789 6.54297C75.224 6.39974 75.4811 6.19466 75.6504 5.92773C75.8262 5.6543 75.9141 5.32227 75.9141 4.93164C75.9141 4.48893 75.8294 4.13086 75.6602 3.85742C75.4974 3.58398 75.2402 3.38542 74.8887 3.26172C74.5436 3.13802 74.0977 3.07617 73.5508 3.07617H71.5195V15H68.5898V0.78125H73.5508C74.3776 0.78125 75.1165 0.859375 75.7676 1.01562C76.4251 1.17188 76.9818 1.40951 77.4375 1.72852C77.8932 2.04753 78.2415 2.45117 78.4824 2.93945C78.7233 3.42122 78.8438 3.99414 78.8438 4.6582C78.8438 5.24414 78.7103 5.78451 78.4434 6.2793C78.1829 6.77409 77.7695 7.17773 77.2031 7.49023C76.6432 7.80273 75.9108 7.97526 75.0059 8.00781L74.1562 8.75977ZM74.0293 15H69.7031L70.8457 12.7148H74.0293C74.5436 12.7148 74.9635 12.6335 75.2891 12.4707C75.6146 12.3014 75.8555 12.0736 76.0117 11.7871C76.168 11.5007 76.2461 11.1719 76.2461 10.8008C76.2461 10.3841 76.1745 10.0228 76.0312 9.7168C75.8945 9.41081 75.6732 9.17643 75.3672 9.01367C75.0612 8.8444 74.6576 8.75977 74.1562 8.75977H71.334L71.3535 6.74805H74.8691L75.543 7.53906C76.4089 7.52604 77.1055 7.67904 77.6328 7.99805C78.1667 8.31055 78.554 8.71745 78.7949 9.21875C79.0423 9.72005 79.166 10.2572 79.166 10.8301C79.166 11.7415 78.9674 12.5098 78.5703 13.1348C78.1732 13.7533 77.5905 14.2188 76.8223 14.5312C76.0605 14.8438 75.1296 15 74.0293 15ZM90.9043 12.7148V15H83.3359V12.7148H90.9043ZM84.293 0.78125V15H81.3633V0.78125H84.293ZM89.918 6.57227V8.79883H83.3359V6.57227H89.918ZM90.8945 0.78125V3.07617H83.3359V0.78125H90.8945ZM99.166 0.78125V15H96.2461V0.78125H99.166ZM103.541 0.78125V3.07617H91.9395V0.78125H103.541ZM111.725 0.78125V15H108.805V0.78125H111.725ZM116.1 0.78125V3.07617H104.498V0.78125H116.1ZM120.885 0.78125V15H117.965V0.78125H120.885ZM135.201 0.78125V15H132.271L126.559 5.46875V15H123.629V0.78125H126.559L132.281 10.3223V0.78125H135.201ZM149.02 7.56836V13.2031C148.798 13.4701 148.456 13.7598 147.994 14.0723C147.532 14.3783 146.936 14.6419 146.207 14.8633C145.478 15.0846 144.596 15.1953 143.561 15.1953C142.643 15.1953 141.806 15.0456 141.051 14.7461C140.296 14.4401 139.645 13.9941 139.098 13.4082C138.557 12.8223 138.141 12.1061 137.848 11.2598C137.555 10.4069 137.408 9.43359 137.408 8.33984V7.45117C137.408 6.35742 137.548 5.38411 137.828 4.53125C138.115 3.67839 138.521 2.95898 139.049 2.37305C139.576 1.78711 140.204 1.34115 140.934 1.03516C141.663 0.729167 142.473 0.576172 143.365 0.576172C144.602 0.576172 145.618 0.777995 146.412 1.18164C147.206 1.57878 147.812 2.13216 148.229 2.8418C148.652 3.54492 148.912 4.35221 149.01 5.26367H146.168C146.096 4.7819 145.96 4.36198 145.758 4.00391C145.556 3.64583 145.266 3.36589 144.889 3.16406C144.518 2.96224 144.036 2.86133 143.443 2.86133C142.955 2.86133 142.519 2.96224 142.135 3.16406C141.757 3.35938 141.438 3.64909 141.178 4.0332C140.917 4.41732 140.719 4.89258 140.582 5.45898C140.445 6.02539 140.377 6.68294 140.377 7.43164V8.33984C140.377 9.08203 140.449 9.73958 140.592 10.3125C140.735 10.8789 140.947 11.3574 141.227 11.748C141.513 12.1322 141.865 12.4219 142.281 12.6172C142.698 12.8125 143.183 12.9102 143.736 12.9102C144.199 12.9102 144.583 12.8711 144.889 12.793C145.201 12.7148 145.452 12.6204 145.641 12.5098C145.836 12.3926 145.986 12.2819 146.09 12.1777V9.6582H143.414V7.56836H149.02Z" fill="#FFFF00"/>
</svg>
