<svg width="32" height="23" viewBox="0 0 32 23" fill="none" xmlns="http://www.w3.org/2000/svg">
<path fill-rule="evenodd" clip-rule="evenodd" d="M12.6861 0.011305C7.31485 0.138964 4.23007 0.373595 3.25097 0.729013C1.91105 1.21536 0.919941 2.32345 0.586078 3.70848C-0.195359 6.95028 -0.195359 15.4815 0.586078 18.7233C0.907929 20.0586 1.86107 21.1584 3.10076 21.6251C4.50087 22.1521 8.80185 22.4151 16.0228 22.4154C22.6415 22.4157 27.1375 22.1793 28.6352 21.7523C29.7701 21.4288 30.8222 20.4527 31.2401 19.3358C31.7361 18.0099 32.0011 15.1446 32 11.1158C31.9989 6.68268 31.695 3.97722 31.0557 2.70963C30.5338 1.67495 29.4313 0.846462 28.2532 0.603623C27.2186 0.390345 25.286 0.22605 22.3957 0.105465C20.7385 0.0363967 14.2712 -0.0263321 12.6861 0.011305ZM17.1779 8.94325C19.3364 10.1851 21.0781 11.2225 21.0484 11.2484C21.0186 11.2743 19.2526 12.2968 17.1239 13.5205C14.9951 14.7443 13.1557 15.8029 13.0365 15.8729L12.8196 16.0005V11.2159V6.4313L13.0365 6.5583C13.1557 6.6281 15.0194 7.70136 17.1779 8.94325Z" fill="white"/>
</svg>
